<svg id="Layer_1" enable-background="new 0 0 450 450" height="512" viewBox="0 0 450 450" width="512" xmlns="http://www.w3.org/2000/svg"><g><g><g><g id="XMLID_1_"><g fill="#03aadf"><ellipse cx="31" cy="392.8" rx="21" ry="21"/><path d="m143.2 421.4c0 8-6.5 14.5-14.5 14.5s-14.5-6.5-14.5-14.5 6.5-14.5 14.5-14.5 14.5 6.6 14.5 14.5z"/><ellipse cx="392.8" cy="419" rx="21" ry="21"/><path d="m435.9 321.3c0 8-6.5 14.5-14.5 14.5s-14.5-6.5-14.5-14.5 6.5-14.5 14.5-14.5 14.5 6.5 14.5 14.5z"/><path d="m28.6 114.3c8 0 14.5 6.5 14.5 14.5s-6.5 14.5-14.5 14.5-14.5-6.5-14.5-14.5 6.5-14.5 14.5-14.5z"/><path d="m243.1 208.8c3.8 0 7 3.1 7 7 0 3.8-3.1 6.9-7 6.9h-9.7v-13.9z"/><path d="m204.5 219.7v4.3h-22v-4.3c0-6.1 4.9-11 11-11s11 5 11 11z"/><path d="m348.8 213.1-26.8-1.8c-2.3-.1-4.2-1.8-4.7-4.1-2.4-12.5-7.3-24.3-14.5-34.9-1.3-1.9-1.1-4.5.4-6.2l17.7-20.2c2.7-3.1 2.8-7.4.2-10l-3.4-3.4-.2-.2-3.4-3.4c-2.6-2.6-6.9-2.5-10 .2l-20.2 17.7c-1.7 1.5-4.3 1.7-6.2.4-10.6-7.2-22.3-12.1-34.9-14.4-2.3-.4-4-2.4-4.1-4.7l-1.8-26.8c-.3-4.1-3.3-7.3-6.9-7.3h-10c-3.7 0-6.6 3.1-6.9 7.3l-1.8 26.8c-.1 2.3-1.8 4.2-4.1 4.7-12.5 2.4-24.3 7.3-34.9 14.4-1.9 1.3-4.5 1.1-6.2-.4l-20.2-17.7c-3.1-2.7-7.4-2.8-10-.2l-3.4 3.4c-.1.1-.1.1-.2.2l-3.4 3.4c-2.6 2.6-2.5 6.9.2 10l17.7 20.2c1.5 1.7 1.7 4.3.4 6.2-7.2 10.6-12.1 22.3-14.5 34.9-.4 2.3-2.3 4-4.7 4.1l-26.8 1.8c-4.1.3-7.3 3.3-7.3 6.9v9.9c0 3.7 3.1 6.6 7.3 6.9l26.8 1.8c2.3.1 4.2 1.8 4.7 4.1 2.4 12.5 7.3 24.3 14.5 34.9 1.3 1.9 1.1 4.5-.4 6.2l-17.7 20.2c-2.7 3.1-2.8 7.4-.2 10l7 7c2.6 2.6 6.9 2.5 10-.2l20.2-17.7c1-.8 2.1-1.3 3.4-1.3 1 0 2 .3 2.9.9 10.6 7.2 22.3 12 34.9 14.5 2.3.4 4 2.4 4.1 4.7l1.8 26.8c.3 4.1 3.3 7.3 6.9 7.3h9.9c1.8 0 3.5-.8 4.7-2.1s2.1-3.1 2.2-5.2l1.8-26.8c.1-2.3 1.8-4.2 4.1-4.7 12.5-2.4 24.3-7.3 34.9-14.5 1.9-1.3 4.5-1.1 6.2.4l20.2 17.7c3.1 2.7 7.4 2.8 10 .2l3.4-3.4.2-.2 3.4-3.4c2.6-2.6 2.5-6.9-.2-10l-17.7-20.2c-1.5-1.7-1.7-4.3-.4-6.2 7.2-10.6 12-22.3 14.5-34.9.4-2.3 2.4-4 4.7-4.1l26.8-1.8c4.1-.3 7.3-3.3 7.3-6.9v-9.9c0-3.6-3.2-6.6-7.3-6.9zm-123.8 89.9c-43 0-78-35-78-78s35-78 78-78 78 35 78 78-35 78-78 78z"/></g><path d="m225 157.2c-37.4 0-67.8 30.4-67.8 67.8s30.4 67.8 67.8 67.8 67.8-30.4 67.8-67.8-30.4-67.8-67.8-67.8zm-10.3 89.2c0 2.8-2.3 5.1-5.1 5.1s-5.1-2.3-5.1-5.1v-12.1h-22v12.1c0 2.8-2.3 5.1-5.1 5.1s-5.1-2.3-5.1-5.1v-26.6c0-11.7 9.5-21.2 21.2-21.2s21.2 9.5 21.2 21.2zm28.4-13.5h-9.7v13.5c0 2.8-2.3 5.1-5.1 5.1s-5.1-2.3-5.1-5.1v-42.7c0-2.8 2.3-5.1 5.1-5.1h14.8c9.5 0 17.1 7.7 17.1 17.1 0 9.5-7.7 17.2-17.1 17.2zm29.5 18.6c-2.8 0-5.1-2.3-5.1-5.1v-42.7c0-2.8 2.3-5.1 5.1-5.1s5.1 2.3 5.1 5.1v42.7c0 2.8-2.3 5.1-5.1 5.1z" fill="#193e80"/><circle cx="419" cy="57.2" fill="#03aadf" r="21"/><path d="m335.7 28.6c0 8-6.5 14.5-14.5 14.5s-14.5-6.5-14.5-14.5 6.5-14.5 14.5-14.5 14.5 6.5 14.5 14.5z" fill="#03aadf"/><path d="m424.1 88v108.1c0 18.8-15.3 34-34 34h-23.8v-10.2h23.8c13.1 0 23.8-10.7 23.8-23.8v-108.1c1.6.3 3.4.4 5.1.4s3.5-.1 5.1-.4z" fill="#193e80"/><path d="m396.8 321.3c0 1.7.2 3.5.5 5.1h-73.9l5-5c1.5-1.5 2.7-3.3 3.5-5.2h65.4c-.3 1.6-.5 3.3-.5 5.1z" fill="#193e80"/><path d="m361.6 419c0 1.7.1 3.4.4 5.1h-108.1c-18.8 0-34-15.3-34-34v-23.8h.1 10.1v23.8c0 13.1 10.7 23.8 23.8 23.8h108.1c-.3 1.7-.4 3.4-.4 5.1z" fill="#193e80"/><path d="m326.4 52.7v73.9l-5-5c-1.5-1.5-3.3-2.7-5.2-3.5v-65.4c1.6.3 3.4.5 5.1.5s3.4-.2 5.1-.5z" fill="#193e80"/><path d="m230.1 59.9v23.8h-10.2v-23.8c0-13.1-10.7-23.8-23.8-23.8h-108.1c.3-1.7.4-3.4.4-5.1s-.1-3.4-.4-5.1h108.1c18.7 0 34 15.3 34 34z" fill="#193e80"/><path d="m133.8 331.9v65.4c-1.6-.4-3.4-.5-5.1-.5s-3.4.2-5.1.5v-73.9l5 5c1.6 1.5 3.3 2.7 5.2 3.5z" fill="#193e80"/><path d="m126.6 123.6-5 5c-1.5 1.5-2.7 3.3-3.5 5.2h-65.4c.3-1.6.5-3.4.5-5.1s-.2-3.4-.5-5.1z" fill="#193e80"/><path d="m83.8 219.9v10.2h-23.9c-13.1 0-23.8 10.7-23.8 23.8v108.1c-1.7-.3-3.4-.4-5.1-.4s-3.4.1-5.1.4v-108.1c0-18.8 15.3-34 34-34z" fill="#193e80"/><ellipse cx="57.2" cy="31" fill="#03aadf" rx="21" ry="21"/></g></g></g></g></svg>