<svg id="Layer_1" enable-background="new 0 0 50 50" height="512" viewBox="0 0 50 50" width="512" xmlns="http://www.w3.org/2000/svg"><g id="_x38_5"><g><g enable-background="new"><g><path d="m42.144989 34.761364-.0100098 3.1099853-19.1500244 11.1300049-15.1299438-8.7399902.0099487-3.1099854 19.1500244-11.1300049z" fill="#c9cee2"/></g></g></g><g><g enable-background="new"><g><path d="m42.1446838 34.7568512-.0088272 3.1136131-19.1489963 11.1281815.0088272-3.1136131z" fill="#b0b8cf"/></g><g><path d="m22.9956875 45.8850327-.0088272 3.1136131-15.1309033-8.7358322.0088268-3.1136132z" fill="#c9cee2"/></g><g><path d="m42.1446838 34.7568512-19.1489963 11.1281815-15.1309037-8.7358323 19.1489968-11.1281795z" fill="#e3e7f0"/></g></g></g><g><g><path d="m39.394989 34.6513786-16.5900268 9.5799561-12.709961-7.3899536-.0800171-26.2600098 16.5999756-9.5800168 12.710022 7.3800046z" fill="#1d2943"/></g></g><g><path d="m22.8020706 44.2288818-12.7107448-7.3866806-.0744696-26.2610731 12.7107439 7.3866778z" fill="#1d2943"/><path d="m22.7276001 17.9678059-12.7107439-7.3866778 16.5973463-9.5824826 12.7107449 7.386678z" fill="#4c5c75"/><path d="m34.9644318 8.3795805-.9954529.5688677-11.2347336 6.4870271-7.3731117-4.2772569-.9845019-.5688677 12.2301875-7.0668449z" fill="#1d2943"/><path d="m33.9689789 8.9484482-11.2347336 6.4870271-7.3731117-4.2772569 11.2456856-6.4870939z" fill="#111d33"/><path d="m39.3249474 8.3853235.0744705 26.2610731-16.5973473 9.5824852-.0744705-26.2610759z" fill="#111d33"/><g><path d="m23.8975372 19.1593132 14.2682495-8.2384377.063694 22.5043679-14.2682495 8.2379608z" fill="#4c5c75"/><g fill="#1d2943"><path d="m23.8975372 19.1593132 14.2682495-8.2384377.0115242 4.0710192-14.2682514 8.2379618z"/><path d="m23.8975372 25.3138027 14.2797737-8.2450886.0115204 4.0710183-14.2797718 8.2446136z"/><path d="m23.8975372 31.4682922 14.3204232-8.2685604.0115203 4.0710202-14.3204212 8.2680854z"/><path d="m23.8975372 37.6227837 14.3204232-8.2685604.0115203 4.0710201-14.3204212 8.2680855z"/></g><path d="m24.7818947 19.7200813 6.5220127-3.7657585.0051403 1.5928192-6.5225849 3.7651882z" fill="#f45170"/><path d="m32.8167877 15.1417437c.3548317-.2048616.6452255-.0393763.6463814.3683157.0011559.407691-.287384.8967094-.6422157 1.1015701-.3547974.2048435-.6451607.0500546-.6463165-.3576374s.2873535-.9074049.6421508-1.1122484z" fill="#fff"/><path d="m34.74963 14.0258169c.3548317-.2048616.6452217-.0393753.6463776.3683157s-.2873802.8967085-.6422119 1.1015701c-.3547974.2048435-.6545334.0554647-.6556892-.3522263-.001156-.4076919.2967223-.912816.6515235-1.1176595z" fill="#57b3fe"/><path d="m36.67313 12.9152832c.3548317-.2048616.6452255-.0393763.6463814.3683157.0011559.407691-.287384.8967085-.6422119 1.1015701-.3548317.2048616-.645195.0500717-.6463509-.3576193-.0011558-.4076919.2873497-.9074049.6421814-1.1122665z" fill="#78e75a"/><path d="m24.7818947 25.8745708 6.5220127-3.7657566.0051403 1.5928193-6.5225849 3.7651863z" fill="#f45170"/><path d="m32.8167877 21.2962341c.3548317-.2048626.6452255-.0393753.6463814.3683147.0011559.407692-.287384.8967094-.6422157 1.101572-.3547974.2048416-.6451607.0500526-.6463165-.3576393-.0011559-.40769.2873535-.9074038.6421508-1.1122474z" fill="#fff"/><path d="m34.74963 20.1803074c.3548317-.2048626.6452217-.0393753.6463776.3683147.0011559.407692-.2873802.8967094-.6422119 1.101572-.3547974.2048435-.6545334.0554638-.6556892-.3522282-.001156-.4076899.2967223-.912815.6515235-1.1176585z" fill="#57b3fe"/><path d="m36.67313 19.0697727c.3548317-.2048607.6452255-.0393753.6463814.3683167.0011559.40769-.287384.8967075-.6422119 1.1015701-.3548317.2048607-.645195.0500717-.6463509-.3576202-.0011558-.4076901.2873497-.907404.6421814-1.1122666z" fill="#78e75a"/><path d="m24.7818947 32.0290604 6.5220127-3.7657566.0051403 1.5928192-6.5225849 3.7651882z" fill="#f45170"/><path d="m32.8167877 27.4507236c.3548317-.2048607.6452255-.0393753.6463814.3683167.0011559.40769-.287384.8967075-.6422157 1.1015701-.3547974.2048435-.6451607.0500526-.6463165-.3576374-.0011559-.4076919.2873535-.9074058.6421508-1.1122494z" fill="#fff"/><path d="m34.74963 26.3347969c.3548317-.2048607.6452217-.0393753.6463776.3683167s-.2873802.8967094-.6422119 1.1015701c-.3547974.2048435-.6545334.0554638-.6556892-.3522263-.001156-.4076919.2967223-.912817.6515235-1.1176605z" fill="#57b3fe"/><path d="m36.67313 25.2242641c.3548317-.2048626.6452255-.0393753.6463814.3683147.0011559.407692-.287384.8967094-.6422119 1.1015701-.3548317.2048626-.645195.0500717-.6463509-.3576183-.0011558-.4076919.2873497-.9074058.6421814-1.1122665z" fill="#78e75a"/><path d="m24.7818947 38.1835518 6.5220127-3.7657585.0051403 1.5928192-6.5225849 3.7651863z" fill="#f45170"/><path d="m32.8167877 33.6052132c.3548317-.2048607.6452255-.0393753.6463814.3683167s-.287384.8967094-.6422157 1.1015701c-.3547974.2048454-.6451607.0500526-.6463165-.3576355-.0011559-.407692.2873535-.9074059.6421508-1.1122513z" fill="#fff"/><path d="m34.74963 32.4892883c.3548317-.2048607.6452217-.0393753.6463776.3683167.0011559.4076881-.2873802.8967094-.6422119 1.1015701-.3547974.2048416-.6545334.0554619-.6556892-.3522263-.001156-.4076919.2967223-.9128189.6515235-1.1176605z" fill="#57b3fe"/><path d="m36.67313 31.3787537c.3548317-.2048607.6452255-.0393753.6463814.3683167s-.287384.8967094-.6422119 1.1015701c-.3548317.2048607-.645195.0500717-.6463509-.3576202s.2873497-.907404.6421814-1.1122666z" fill="#78e75a"/></g></g></g></svg>