<svg id="FLAT" height="512" viewBox="0 0 24 24" width="512" xmlns="http://www.w3.org/2000/svg"><path d="m19 17.75h-2.75v-8.75a2.2528 2.2528 0 0 0 -2.25-2.25h-1.75v-1.75h-.5v1.75h-1.75a2.2528 2.2528 0 0 0 -2.25 2.25v6.75h-2.75a2.2528 2.2528 0 0 0 -2.25 2.25v2h.5v-2a1.7522 1.7522 0 0 1 1.75-1.75h2.75v2.75h.5v-10a1.7522 1.7522 0 0 1 1.75-1.75h4a1.7522 1.7522 0 0 1 1.75 1.75v10h.5v-.75h2.75a1.7522 1.7522 0 0 1 1.75 1.75h.5a2.2528 2.2528 0 0 0 -2.25-2.25z" fill="#edf2ff"/><path d="m4 20.75h16v.5h-16z" fill="#edf2ff"/><path d="m14 1.75h-1.5859a.7554.7554 0 0 1 -.53-.22l-.4141-.4138a1.257 1.257 0 0 0 -.8841-.3662h-.5859a1.2511 1.2511 0 0 0 -1.25 1.25v2a1.2511 1.2511 0 0 0 1.25 1.25h4a1.2511 1.2511 0 0 0 1.25-1.25v-1a1.2511 1.2511 0 0 0 -1.25-1.25z" fill="#f0e486"/><rect fill="#fa8f82" height="3.5" rx="1.25" width="6.5" x="4.75" y="8.75"/><rect fill="#4bfabf" height="3.5" rx="1.25" width="6.5" x="12.75" y="8.75"/><rect fill="#4bfabf" height="3.5" rx="1.25" width="6.5" x="12.75" y="13.75"/><rect fill="#807a6e" height="4.5" rx="1.25" width="6.5" x="4.75" y="18.75"/><circle cx="16" cy="21" fill="#fa8f82" r="2.25"/><circle cx="3" cy="21" fill="#f0e486" r="1.25"/><circle cx="21" cy="21" fill="#f0e486" r="1.25"/><path d="m11.75 5.25h-1.75a1.25 1.25 0 0 1 -1.25-1.25v-2a1.25 1.25 0 0 1 1.25-1.25h.59a1.194 1.194 0 0 1 .58.15 1.2259 1.2259 0 0 0 -.67 1.1v2a1.25 1.25 0 0 0 1.25 1.25z" fill="#d9ce79"/><path d="m7.75 12.25h-1.75a1.25 1.25 0 0 1 -1.25-1.25v-1a1.25 1.25 0 0 1 1.25-1.25h1.75a1.25 1.25 0 0 0 -1.25 1.25v1a1.25 1.25 0 0 0 1.25 1.25z" fill="#e68477"/><path d="m15.75 12.25h-1.75a1.25 1.25 0 0 1 -1.25-1.25v-1a1.25 1.25 0 0 1 1.25-1.25h1.75a1.25 1.25 0 0 0 -1.25 1.25v1a1.25 1.25 0 0 0 1.25 1.25z" fill="#41d9a5"/><path d="m15.75 17.25h-1.75a1.25 1.25 0 0 1 -1.25-1.25v-1a1.25 1.25 0 0 1 1.25-1.25h1.75a1.25 1.25 0 0 0 -1.25 1.25v1a1.25 1.25 0 0 0 1.25 1.25z" fill="#41d9a5"/><path d="m7.75 23.25h-1.75a1.25 1.25 0 0 1 -1.25-1.25v-2a1.25 1.25 0 0 1 1.25-1.25h1.75a1.25 1.25 0 0 0 -1.25 1.25v2a1.25 1.25 0 0 0 1.25 1.25z" fill="#524d46"/><path d="m16.87 23.07a2.1177 2.1177 0 0 1 -.87.18 2.25 2.25 0 0 1 0-4.5 2.1177 2.1177 0 0 1 .87.18 2.2488 2.2488 0 0 0 0 4.14z" fill="#e68477"/><g fill="#d9ce79"><path d="m3.38 22.18a.9857.9857 0 0 1 -.38.07 1.25 1.25 0 0 1 0-2.5.9857.9857 0 0 1 .38.07 1.2311 1.2311 0 0 0 0 2.36z"/><path d="m21.38 22.18a.9857.9857 0 0 1 -.38.07 1.25 1.25 0 0 1 0-2.5.9857.9857 0 0 1 .38.07 1.2311 1.2311 0 0 0 0 2.36z"/></g></svg>