<svg height="512" viewBox="0 0 60 60" width="512" xmlns="http://www.w3.org/2000/svg"><g id="021---Cyber-Security" fill="none"><path id="Path" d="m46 29.9999975c.0499816 8.8365584-7.0729441 16.0405204-15.9095 16.0905022-8.8365559.0499817-16.040518-7.0729438-16.0905-15.9094997v-.1810025c0-.1809975 0-.3729975.011-.5549975.2738538-7.8479763 6.2026077-14.3372377 13.994-15.317.6615462-.0856202 1.3279363-.1283761 1.995-.1280025l.171.0000025c8.7697039.0937315 15.8295009 7.2297952 15.829 15.9999975z" fill="#a3d274"/><rect id="Rectangle" fill="#e5e8eb" height="13" rx="2" width="14" x="23" y="26"/><circle id="Oval" cx="30" cy="32" fill="#abb1bb" r="2"/><path id="Path" d="m13 4c.0005369.33404855-.0569857.6656491-.17.98-.4994857 1.44514604-2.0059314 2.28341148-3.49728505 1.94607284-1.49135363-.33733865-2.49038235-1.74233311-2.3192924-3.26176104.17108996-1.51942792 1.45754986-2.66707279 2.98657745-2.6643118 1.2794866-.00504025 2.4189889.80831468 2.83 2.02.1130143.3143509.1705369.64595145.17.98z" fill="#b8df8a"/><path id="Path" d="m53 4c-.0075034 1.45909158-1.0637261 2.70118856-2.5026493 2.94306587s-2.8432044-.58661865-3.3273507-1.96306587c-.2266423-.63367769-.2266423-1.32632231 0-1.96.4841463-1.37644722 1.8884275-2.20494318 3.3273507-1.96306587s2.4951459 1.48397429 2.5026493 2.94306587z" fill="#b8df8a"/><path id="Path" d="m13 56c.0005369.3340486-.0569857.6656491-.17.98-.4786034 1.3847359-1.8874021 2.2212215-3.33228073 1.9785686-1.44487863-.2426528-2.50313811-1.4934561-2.50313811-2.9585686s1.05825948-2.7159158 2.50313811-2.9585686c1.44487863-.2426529 2.85367733.5938327 3.33228073 1.9785686.1130143.3143509.1705369.6459514.17.98z" fill="#b8df8a"/><path id="Path" d="m53 56c-.0075034 1.4590916-1.0637261 2.7011886-2.5026493 2.9430659s-2.8432044-.5866187-3.3273507-1.9630659c-.2266423-.6336777-.2266423-1.3263223 0-1.96.4841463-1.3764472 1.8884275-2.2049432 3.3273507-1.9630659s2.4951459 1.4839743 2.5026493 2.9430659z" fill="#b8df8a"/><path id="Path" d="m7 40c.00053685.3340486-.05698569.6656491-.17.98-.47860342 1.3847359-1.88740211 2.2212215-3.33228073 1.9785686-1.44487863-.2426528-2.50313811-1.4934561-2.50313811-2.9585686s1.05825948-2.7159158 2.50313811-2.9585686c1.44487862-.2426529 2.85367731.5938327 3.33228073 1.9785686.11301431.3143509.17053685.6459514.17.98z" fill="#b8df8a"/><path id="Path" d="m7 20c.00053685.3340486-.05698569.6656491-.17.98-.47860342 1.3847359-1.88740211 2.2212215-3.33228073 1.9785686-1.44487863-.2426528-2.50313811-1.4934561-2.50313811-2.9585686s1.05825948-2.7159158 2.50313811-2.9585686c1.44487862-.2426529 2.85367731.5938327 3.33228073 1.9785686.11301431.3143509.17053685.6459514.17.98z" fill="#b8df8a"/><path id="Path" d="m59 40c-.0075034 1.4590916-1.0637261 2.7011886-2.5026493 2.9430659s-2.8432044-.5866187-3.3273507-1.9630659c-.2266423-.6336777-.2266423-1.3263223 0-1.96.4841463-1.3764472 1.8884275-2.2049432 3.3273507-1.9630659s2.4951459 1.4839743 2.5026493 2.9430659z" fill="#b8df8a"/><path id="Path" d="m59 20c-.0075034 1.4590916-1.0637261 2.7011886-2.5026493 2.9430659s-2.8432044-.5866187-3.3273507-1.9630659c-.2266423-.6336777-.2266423-1.3263223 0-1.96.4841463-1.3764472 1.8884275-2.2049432 3.3273507-1.9630659s2.4951459 1.4839743 2.5026493 2.9430659z" fill="#b8df8a"/><g fill="#373737"><path id="Shape" d="m35 40h-10c-1.6568542 0-3-1.3431458-3-3v-9c0-1.6568542 1.3431458-3 3-3h10c1.6568542 0 3 1.3431458 3 3v9c0 1.6568542-1.3431458 3-3 3zm-10-13c-.5522847 0-1 .4477153-1 1v9c0 .5522847.4477153 1 1 1h10c.5522847 0 1-.4477153 1-1v-9c0-.5522847-.4477153-1-1-1z"/><path id="Shape" d="m30 35c-1.6568542 0-3-1.3431458-3-3s1.3431458-3 3-3 3 1.3431458 3 3-1.3431458 3-3 3zm0-4c-.5522847 0-1 .4477153-1 1s.4477153 1 1 1 1-.4477153 1-1-.4477153-1-1-1z"/><path id="Path" d="m30 47c-6.6826518.0001931-12.7455353-3.9148296-15.494986-10.0056715s-1.6753916-13.2275328 2.744986-18.2393285c.3656125-.4142135.9977864-.4536125 1.412-.088.4142135.3656125.4536125.9977864.088 1.412-5.0480972 5.7230255-4.9947182 14.3239741.1240238 19.9839024 5.1187419 5.6599282 13.6710878 6.5745572 19.8709762 2.1250976.4484552-.3225343 1.0734657-.2204552 1.396.228s.2204552 1.0734657-.228 1.396c-2.88596 2.0804684-6.3553257 3.1962091-9.913 3.188z"/><path id="Path" d="m42.489 41c-.3845585-.0003164-.7348664-.2211244-.9010203-.5679359-.1661538-.3468115-.1187135-.7581766.1220203-1.0580641 2.1414193-2.6536863 3.3032709-5.9640804 3.29-9.374-.0008518-5.5567252-3.0734968-10.6577064-7.9851412-13.2563492-4.9116445-2.5986427-10.8574475-2.2691236-15.4518588.8563492-.4564633.3109363-1.0785637.1929633-1.3895-.2635-.3109363-.4564634-.1929633-1.0785637.2635-1.3895 6.9558698-4.7317494 16.3265188-3.6642513 22.0398964 2.5107705 5.7133776 6.1750217 6.0510047 15.6002338.7941036 22.1682295-.1902789.2370364-.4780396.3746611-.782.374z"/><path id="Shape" d="m10 8c-2.209139 0-4-1.790861-4-4s1.790861-4 4-4 4 1.790861 4 4c0 1.06086596-.4214274 2.07828161-1.1715729 2.82842712-.7501455.75014552-1.7675611 1.17157288-2.8284271 1.17157288zm0-6c-1.1045695 0-2 .8954305-2 2s.8954305 2 2 2 2-.8954305 2-2c0-.53043298-.2107137-1.03914081-.5857864-1.41421356-.3750728-.37507276-.8837806-.58578644-1.4142136-.58578644z"/><path id="Shape" d="m50 8c-2.209139 0-4-1.790861-4-4s1.790861-4 4-4 4 1.790861 4 4c0 1.06086596-.4214274 2.07828161-1.1715729 2.82842712-.7501455.75014552-1.7675611 1.17157288-2.8284271 1.17157288zm0-6c-1.1045695 0-2 .8954305-2 2s.8954305 2 2 2 2-.8954305 2-2c0-.53043298-.2107137-1.03914081-.5857864-1.41421356-.3750728-.37507276-.8837806-.58578644-1.4142136-.58578644z"/><path id="Shape" d="m10 60c-2.209139 0-4-1.790861-4-4s1.790861-4 4-4 4 1.790861 4 4-1.790861 4-4 4zm0-6c-1.1045695 0-2 .8954305-2 2s.8954305 2 2 2 2-.8954305 2-2-.8954305-2-2-2z"/><path id="Shape" d="m50 60c-2.209139 0-4-1.790861-4-4s1.790861-4 4-4 4 1.790861 4 4-1.790861 4-4 4zm0-6c-1.1045695 0-2 .8954305-2 2s.8954305 2 2 2 2-.8954305 2-2-.8954305-2-2-2z"/><path id="Shape" d="m4 44c-2.209139 0-4-1.790861-4-4s1.790861-4 4-4 4 1.790861 4 4-1.790861 4-4 4zm0-6c-1.1045695 0-2 .8954305-2 2s.8954305 2 2 2 2-.8954305 2-2-.8954305-2-2-2z"/><path id="Shape" d="m4 24c-2.209139 0-4-1.790861-4-4s1.790861-4 4-4 4 1.790861 4 4-1.790861 4-4 4zm0-6c-1.1045695 0-2 .8954305-2 2s.8954305 2 2 2 2-.8954305 2-2-.8954305-2-2-2z"/><path id="Shape" d="m56 44c-2.209139 0-4-1.790861-4-4s1.790861-4 4-4 4 1.790861 4 4-1.790861 4-4 4zm0-6c-1.1045695 0-2 .8954305-2 2s.8954305 2 2 2 2-.8954305 2-2-.8954305-2-2-2z"/><path id="Shape" d="m56 24c-2.209139 0-4-1.790861-4-4s1.790861-4 4-4 4 1.790861 4 4-1.790861 4-4 4zm0-6c-1.1045695 0-2 .8954305-2 2s.8954305 2 2 2 2-.8954305 2-2-.8954305-2-2-2z"/><path id="Path" d="m34 27c-.5522847 0-1-.4477153-1-1v-3c0-1.6568542-1.3431458-3-3-3s-3 1.3431458-3 3v3c0 .5522847-.4477153 1-1 1s-1-.4477153-1-1v-3c0-2.7614237 2.2385763-5 5-5s5 2.2385763 5 5v3c0 .5522847-.4477153 1-1 1z"/><path id="Path" d="m30 36c-.5522847 0-1-.4477153-1-1v-1c0-.5522847.4477153-1 1-1s1 .4477153 1 1v1c0 .5522847-.4477153 1-1 1z"/><path id="Path" d="m44.282 17c-.2686341-.0000384-.5259561-.1081569-.714-.3-1.7055355-1.744746-3.731973-3.1436942-5.968-4.12-.4882913-.2313427-.7045065-.8087246-.4882756-1.3038933.2162308-.4951687.786697-.7290216 1.2882756-.5281067 2.4730728 1.0773186 4.7142795 2.6230721 6.6 4.552.2818318.2875259.3637456.716027.2078393 1.0872325s-.5192225.61271-.9218393.6127675z"/><path id="Path" d="m34 11.4c-.0671773.0002341-.1341993-.0064681-.2-.02-1.2508408-.2529671-2.5238358-.3802666-3.8-.3800004-.5522847.0000004-1-.4477149-1-1.00000003 0-.55228432.4477153-.99999957 1-1 1.4105467-.00028492 2.8175734.14075276 4.2.42100043.50114.10433518.8425766.57026465.791107 1.0795563-.0514696.5092916-.4792249.8974857-.991107.8994437z"/><path id="Path" d="m22 12.664c-.4730773-.0005567-.8810394-.3325436-.9777186-.795637-.0966793-.4630935.1443792-.9305753.5777186-1.120363 1.3493464-.589286 2.7571538-1.03442126 4.2-1.328.3502989-.07145312.7121082.04940372.9491379.31704492.2370297.26764118.3132692.64140568.2.98049998s-.398839.592002-.7491379.6634551c-1.3053172.2653497-2.5790231.6675726-3.8 1.2-.126004.055516-.2623105.0837996-.4.083z"/><path id="Path" d="m12.675 21c-.1756995.0002123-.3482838-.0463854-.5-.135-.4773057-.2764647-.640617-.8872044-.365-1.365 1.418295-2.4562916 3.3199457-4.5994758 5.59-6.3.2858125-.2143594.6642734-.2599564.9928203-.1196153.3285469.1403412.5572656.4452995.6.8000001.0427345.3547005-.1070078.7052558-.3928203.9196152-2.0546215 1.5381422-3.7756932 3.4772821-5.059 5.7-.1786283.3093932-.5087435.4999909-.866.5z"/><path id="Path" d="m10 31c-.55228475 0-1-.4477153-1-1-.00227139-2.2329359.35219528-4.4518973 1.05-6.573.1116455-.3394023.3958792-.5934608.7456329-.6664742.3497538-.0730133.7118918.0461111.95.3125001.2381083.2663889.3160126.6395718.2043671.9789741-.6310909 1.9194992-.9517908 3.9274185-.95 5.948 0 .2652165-.1053568.5195704-.2928932.7071068s-.4418903.2928932-.7071068.2928932z"/><path id="Path" d="m12.677 41c-.3576137.0003484-.6881932-.1902972-.867-.5-1.1326335-1.9566898-1.9398171-4.0844123-2.39-6.3-.07145312-.3501203.04930842-.7117645.31679492-.9487049.26748648-.2369404.64106038-.3131799.97999998-.2s.591752.3985846.6632051.7487049c.4063798 2.0047906 1.1366081 3.9299996 2.162 5.7.2761293.4782803.1122682 1.0898496-.366 1.366-.1514089.0883632-.3236937.1346281-.499.134z"/><path id="Path" d="m22 49.336c-.1377614.0004847-.274071-.0281403-.4-.084-2.9076903-1.2757741-5.490881-3.189755-7.558-5.6-.2432956-.2699265-.3210127-.6505913-.2029944-.9942841.1180184-.3436928.4131946-.5963124.7709907-.6598341.3577961-.0635216.721891.0720537.9510037.3541182 1.8712233 2.1803314 4.20846 3.9123266 6.839 5.068.4333394.1897877.6743979.6572695.5777186 1.120363-.0966792.4630934-.5046413.7950803-.9777186.795637z"/><path id="Path" d="m30 51c-1.4105467.0002853-2.8175734-.1407523-4.2-.421-.3573141-.0640376-.6518645-.3166812-.769566-.6600768s-.0400675-.7236082.2028329-.9933741c.2429004-.2697658.6129162-.3867143.9667331-.3055491 2.5082937.5037211 5.0917063.5037211 7.6 0 .5343897-.095773 1.0475805.2523302 1.1561928.784259s-.2270334 1.0533524-.7561928 1.174741c-1.3824266.2802477-2.7894533.4212853-4.2.421z"/><path id="Path" d="m38 49.336c-.4730773-.0005567-.8810394-.3325436-.9777186-.795637-.0966793-.4630935.1443792-.9305753.5777186-1.120363 2.236027-.9763058 4.2624645-2.375254 5.968-4.12.2500859-.2558022.6176437-.3587539.9642178-.2700742.3465742.0886796.6195118.3555181.716.7.0964882.3444818.0018681.714272-.2482178.9700742-1.8857205 1.9289279-4.1269272 3.4746814-6.6 4.552-.1258822.0560045-.2622232.0846361-.4.084z"/><path id="Path" d="m47.323 41c-.1756995.0002123-.3482838-.0463854-.5-.135-.4775427-.2768352-.6404654-.8882432-.364-1.366 1.0247911-1.7700798 1.7543479-3.6952991 2.16-5.7.1104569-.5415152.6389848-.8909569 1.1805-.7805s.8909569.6389848.7805 1.1805c-.4492784 2.2159992-1.2568738 4.3439168-2.391 6.3-.178374.3097782-.5085371.5007848-.866.501z"/><path id="Path" d="m50 31c-.5522847 0-1-.4477153-1-1 .0019382-3.3348603-.874454-6.6114153-2.541-9.5-.2484017-.4748504-.0783237-1.0611063.3856398-1.3292932.4639634-.268187 1.0568642-.1229594 1.3443602.3292932 1.842887 3.1923881 2.8124088 6.8138676 2.811 10.5 0 .5522847-.4477153 1-1 1z"/><path id="Path" d="m22 12.67c-.5522847 0-1-.4477153-1-1v-6.67h-8c-.5522847 0-1-.44771525-1-1s.4477153-1 1-1h8c1.1045695 0 2 .8954305 2 2v6.67c0 .5522847-.4477153 1-1 1z"/><path id="Path" d="m38 12.67c-.5522847 0-1-.4477153-1-1v-6.67c0-1.1045695.8954305-2 2-2h8c.5522847 0 1 .44771525 1 1s-.4477153 1-1 1h-8v6.67c0 .5522847-.4477153 1-1 1z"/><path id="Path" d="m21 57h-8c-.5522847 0-1-.4477153-1-1s.4477153-1 1-1h8v-6.67c0-.5522847.4477153-1 1-1s1 .4477153 1 1v6.67c0 1.1045695-.8954305 2-2 2z"/><path id="Path" d="m47 57h-8c-1.1045695 0-2-.8954305-2-2v-6.67c0-.5522847.4477153-1 1-1s1 .4477153 1 1v6.67h8c.5522847 0 1 .4477153 1 1s-.4477153 1-1 1z"/><path id="Path" d="m30 60c-.5522847 0-1-.4477153-1-1v-9c0-.5522847.4477153-1 1-1s1 .4477153 1 1v9c0 .5522847-.4477153 1-1 1z"/><path id="Path" d="m30 11c-.5522847 0-1-.4477153-1-1v-9c0-.55228475.4477153-1 1-1s1 .44771525 1 1v9c0 .5522847-.4477153 1-1 1z"/><path id="Path" d="m12.69 41h-5.69c-.55228475 0-1-.4477153-1-1s.44771525-1 1-1h5.69c.5522847 0 1 .4477153 1 1s-.4477153 1-1 1z"/><path id="Path" d="m12.69 21h-5.69c-.55228475 0-1-.4477153-1-1s.44771525-1 1-1h5.69c.5522847 0 1 .4477153 1 1s-.4477153 1-1 1z"/><path id="Path" d="m53 41h-5.69c-.5522847 0-1-.4477153-1-1s.4477153-1 1-1h5.69c.5522847 0 1 .4477153 1 1s-.4477153 1-1 1z"/><path id="Path" d="m53 21h-5.69c-.5522847 0-1-.4477153-1-1s.4477153-1 1-1h5.69c.5522847 0 1 .4477153 1 1s-.4477153 1-1 1z"/><path id="Path" d="m59 31h-9c-.5522847 0-1-.4477153-1-1s.4477153-1 1-1h9c.5522847 0 1 .4477153 1 1s-.4477153 1-1 1z"/><path id="Path" d="m10 31h-9c-.55228475 0-1-.4477153-1-1s.44771525-1 1-1h9c.5522847 0 1 .4477153 1 1s-.4477153 1-1 1z"/></g></g></svg>