<svg id="Layer_1" enable-background="new 0 0 68 68" height="512" viewBox="0 0 68 68" width="512" xmlns="http://www.w3.org/2000/svg"><g><g><g><g><path d="m52.6619377 44.2094917v13.7895927c0 4.4160538-11.2750587 7.9965363-25.1713772 7.9965363-13.904995 0-25.1800537-3.5804825-25.1800537-7.9965363v-13.7895927c0-4.4247322 11.2750587-8.0052109 25.1800537-8.0052109 13.8963185.0000001 25.1713772 3.5804787 25.1713772 8.0052109z" fill="#4f5d99"/><path d="m52.6619377 44.2094917c0 4.4156189-11.2750587 7.9965324-25.1713772 7.9965324-13.904995 0-25.1800537-3.5809135-25.1800537-7.9965324 0-4.4247322 11.2750587-8.0052109 25.1800537-8.0052109 13.8963185.0000001 25.1713772 3.5804787 25.1713772 8.0052109z" fill="#3d4a75"/><path d="m2.3105063 44.2094917c0 4.4156189 11.2750587 7.9965324 25.1800537 7.9965324 13.8963184 0 25.1713772-3.5809135 25.1713772-7.9965324v13.7909851c0 4.4156189-11.2750587 7.9965324-25.1713772 7.9965324-13.904995 0-25.1800537-3.5809135-25.1800537-7.9965324z" fill="#4f5d99"/><path d="m18.2715893 58.8602982c0 .633255-.5568905 1.1216011-1.1901417 1.0530624-5.5003529-.6258011-9.1393166-1.9072075-10.5658102-2.8686333-.2518106-.1679955-.3890772-.4578018-.3890772-.7550583 0-.6410751.6254292-1.0836067 1.2205-.8776131 2.9677172 1.0452385 6.4235964 2.0062904 9.9632883 2.3877335.5416165.0610886.9612408.5114441.9612408 1.0605088z" fill="#e9e9ff"/><path d="m49.5521774 55.5999489c0 .9509773-.7731018 1.7149696-1.7236443 1.7149696-.9507599 0-1.7236481-.7639923-1.7236481-1.7149696 0-.9505424.7728882-1.7236443 1.7236481-1.7236443.9505425 0 1.7236443.7731018 1.7236443 1.7236443z" fill="#7bd681"/><path d="m37.5573769 58.2048187c0 .9509773-.7731018 1.7149658-1.7236443 1.7149658-.9507599 0-1.7236443-.7639885-1.7236443-1.7149658 0-.9505424.7728844-1.7236443 1.7236443-1.7236443.9505425.0000001 1.7236443.7731019 1.7236443 1.7236443z" fill="#ed524e"/></g><g><path d="m52.6619377 27.1067066v13.7895947c0 4.4160538-11.2750587 7.9965324-25.1713772 7.9965324-13.904995 0-25.1800537-3.5804787-25.1800537-7.9965324v-13.7895947c0-4.4247303 11.2750587-8.005209 25.1800537-8.005209 13.8963185.0000001 25.1713772 3.5804787 25.1713772 8.005209z" fill="#4f5d99"/><path d="m52.6619377 27.1067066c0 4.4156208-11.2750587 7.9965343-25.1713772 7.9965343-13.904995 0-25.1800537-3.5809135-25.1800537-7.9965343 0-4.4247303 11.2750587-8.005209 25.1800537-8.005209 13.8963185.0000001 25.1713772 3.5804787 25.1713772 8.005209z" fill="#3d4a75"/><path d="m2.3105063 27.1067066c0 4.4156208 11.2750587 7.9965343 25.1800537 7.9965343 13.8963184 0 25.1713772-3.5809135 25.1713772-7.9965343v13.790987c0 4.4156189-11.2750587 7.9965324-25.1713772 7.9965324-13.904995 0-25.1800537-3.5809135-25.1800537-7.9965324z" fill="#4f5d99"/><path d="m18.2715893 41.757515c0 .633255-.5568905 1.1216011-1.1901417 1.0530624-5.5003529-.6258011-9.1393166-1.9072075-10.5658102-2.8686333-.2518106-.1679955-.3890772-.4578018-.3890772-.7550583 0-.6410751.6254292-1.0836067 1.2205-.8776131 2.9677172 1.0452385 6.4235964 2.0062904 9.9632883 2.3877335.5416165.0610886.9612408.5114441.9612408 1.0605088z" fill="#e9e9ff"/><path d="m49.5521774 38.4971695c0 .9509735-.7731018 1.7149658-1.7236443 1.7149658-.9507599 0-1.7236481-.7639923-1.7236481-1.7149658 0-.9505463.7728882-1.7236481 1.7236481-1.7236481.9505425 0 1.7236443.7731018 1.7236443 1.7236481z" fill="#7bd681"/><path d="m43.6473274 40.2164726c0 .9509773-.7731018 1.7149696-1.7236443 1.7149696-.9507599 0-1.7236443-.7639923-1.7236443-1.7149696 0-.9505424.7728844-1.7236443 1.7236443-1.7236443.9505425.0000001 1.7236443.7731019 1.7236443 1.7236443z" fill="#fdc72e"/><path d="m37.5573769 41.1020355c0 .9509773-.7731018 1.7149696-1.7236443 1.7149696-.9507599 0-1.7236443-.7639923-1.7236443-1.7149696 0-.9505424.7728844-1.7236443 1.7236443-1.7236443.9505425.0000001 1.7236443.7731019 1.7236443 1.7236443z" fill="#ed524e"/></g><g><path d="m52.6619377 10.0039244v13.7895937c0 4.4160538-11.2750587 7.9965324-25.1713772 7.9965324-13.904995 0-25.1800537-3.5804787-25.1800537-7.9965324v-13.7895937c0-4.4247313 11.2750587-8.0052099 25.1800537-8.0052099 13.8963185-.0000001 25.1713772 3.5804786 25.1713772 8.0052099z" fill="#4f5d99"/><path d="m52.6619377 10.0039244c0 4.4156199-11.2750587 7.9965334-25.1713772 7.9965334-13.904995 0-25.1800537-3.5809135-25.1800537-7.9965334 0-4.4247313 11.2750587-8.0052099 25.1800537-8.0052099 13.8963185-.0000001 25.1713772 3.5804786 25.1713772 8.0052099z" fill="#3d4a75"/><path d="m2.3105063 10.0039244c0 4.4156199 11.2750587 7.9965334 25.1800537 7.9965334 13.8963184 0 25.1713772-3.5809135 25.1713772-7.9965334v13.7909861c0 4.4156189-11.2750587 7.9965324-25.1713772 7.9965324-13.904995 0-25.1800537-3.5809135-25.1800537-7.9965324z" fill="#4f5d99"/><path d="m18.2715893 24.6547337c0 .6332512-.5568905 1.1216011-1.1901417 1.0530605-5.5003529-.6258011-9.1393166-1.9072056-10.5658102-2.8686314-.2518106-.1679974-.3890772-.4578037-.3890772-.7550602 0-.6410751.6254292-1.0836048 1.2205-.8776131 2.9677172 1.0452385 6.4235964 2.0062923 9.9632883 2.3877335.5416165.0610905.9612408.5114441.9612408 1.0605107z" fill="#e9e9ff"/><path d="m49.5521774 21.3943844c0 .9509773-.7731018 1.7149696-1.7236443 1.7149696-.9507599 0-1.7236481-.7639923-1.7236481-1.7149696 0-.9505424.7728882-1.7236443 1.7236481-1.7236443.9505425 0 1.7236443.7731018 1.7236443 1.7236443z" fill="#7bd681"/><path d="m43.6473274 23.1136913c0 .9509773-.7731018 1.7149677-1.7236443 1.7149677-.9507599 0-1.7236443-.7639904-1.7236443-1.7149677 0-.9505424.7728844-1.7236443 1.7236443-1.7236443.9505425.0000001 1.7236443.7731019 1.7236443 1.7236443z" fill="#fdc72e"/><path d="m37.5573769 23.9992523c0 .9509773-.7731018 1.7149677-1.7236443 1.7149677-.9507599 0-1.7236443-.7639904-1.7236443-1.7149677 0-.9505424.7728844-1.7236443 1.7236443-1.7236443.9505425.0000001 1.7236443.7731019 1.7236443 1.7236443z" fill="#ed524e"/></g></g><g fill="#fff" opacity=".16"><path d="m39.2240868 65.0796585c-3.5042992.5916443-7.4863567.9216309-11.7300682.9216309-1.9565868 0-3.8567848-.0683365-5.6769867-.2049942l-14.949936-60.3791619c3.845396-1.7521496 9.8301487-2.9809873 16.7473602-3.3220844z"/><path d="m48.1098289 62.5880928c-1.3082771.5916443-2.8557167 1.1260643-4.5964775 1.5810432l-15.393526-62.1651945c1.729372.0111108 3.4131908.0794413 5.0400677.2044361z"/></g></g><g><g><path d="m65.3241348 50.902729-3.3047295-.8729401c-.1691971-.5523834-.4008064-1.0956345-.6680794-1.6034355l1.7280464-2.948513c.1069984-.187027.080246-.4275513-.0800285-.5878296l-2.253685-2.2536812c-.1602783-.1602783-.4008026-.1959457-.5969658-.0802498l-2.9485092 1.7193489c-.3473053-.1783295-.7035294-.3475227-1.0778008-.4810524-.178112-.071331-.3473053-.1248283-.5254173-.187027l-.8640213-3.2960358c-.0624161-.2135582-.2494431-.3651352-.4721375-.3651352h-3.1979523c-.2226944 0-.4186363.151577-.4721375.3651352l-.1067772.4010239-.1424484.552166-.6147957 2.3428459c-.5610847.178112-1.0956345.4008026-1.6121368.6680794l-2.9398117-1.7193489c-.1957245-.115696-.4362526-.0800285-.5967484.0802498l-1.4518547 1.4520721-.801609.801609c-.1604958.1602783-.1872444.4008026-.080246.5878296l1.7191315 2.948513c-.2672768.5078011-.4899712 1.0510521-.6591644 1.6123505l-3.3047333.8640251c-.2137756.0534973-.365139.2494392-.365139.4721336v3.1888199c0 .2318268.1513634.4188538.365139.4723549l3.3047333.8729401c.1691933.552166.3918877 1.0956306.6680794 1.6032143l-1.7280464 2.948513c-.1069984.187027-.0802498.43647.080246.588047l2.2534637 2.2623825c.1604958.151577.4010239.1872444.5967484.071331l2.9398117-1.7191315c.3562241.187027.7124443.3473053 1.0865021.4897499.1694107.0624161.3475227.1248322.5256348.1783295l.8640213 3.3047333c.0535011.2137756.2494431.3651428.4721375.3651428h3.1979523c.2226944 0 .4097214-.1513672.4721375-.3651428l.8640213-3.3047333c.5610847-.1783295 1.0956345-.4010201 1.6032181-.6680794l.0091324.0089188.4097214.2403069 1.8437462 1.0691032.6859093.4008026c.0535011.0356674.1159134.0534973.1783295.071331.1513634.0176163.3027229-.0356636.4186363-.142662l2.253685-2.2623825c.1602745-.151577.187027-.4010201.0800285-.588047l-1.7280464-2.948513c.2672729-.5075836.4988823-1.0510483.6680794-1.6032143l3.3047295-.8729401c.2137833-.0535011.3653564-.2405281.3653564-.4723549v-3.1888199c-.0000002-.2226942-.1515734-.4186362-.3653567-.4721335zm-12.6667633 8.2842293c-3.4293442 0-6.2175789-2.7793159-6.2175789-6.2175751 0-3.4295654 2.7882347-6.2175789 6.2175789-6.2175789 3.429348 0 6.2175789 2.7880135 6.2175789 6.2175789 0 3.4382592-2.7882309 6.2175751-6.2175789 6.2175751z" fill="#70c1f9"/></g><circle cx="52.657" cy="52.969" fill="#4f5d99" r="6.218"/><circle cx="52.657" cy="52.969" fill="#e9e9ff" r="5.02"/></g></g></svg>