<?xml version="1.0" encoding="UTF-8" standalone="no"?>
<!-- Created with Inkscape (http://www.inkscape.org/) -->

<svg
   version="1.1"
   id="svg3300"
   xml:space="preserve"
   width="682.66669"
   height="682.66669"
   viewBox="0 0 682.66669 682.66669"
   xmlns="http://www.w3.org/2000/svg"
   xmlns:svg="http://www.w3.org/2000/svg"><defs
     id="defs3304"><clipPath
       clipPathUnits="userSpaceOnUse"
       id="clipPath3314"><path
         d="M 0,512 H 512 V 0 H 0 Z"
         id="path3312" /></clipPath></defs><g
     id="g3306"
     transform="matrix(1.3333333,0,0,-1.3333333,0,682.66667)"><g
       id="g3308"><g
         id="g3310"
         clip-path="url(#clipPath3314)"><g
           id="g3316"
           transform="translate(305.0688,205.8994)"><path
             d="m 0,0 v -94.908 c 0,-10.024 -8.126,-18.151 -18.15,-18.151 -10.024,0 -18.151,8.127 -18.151,18.151 v 15.254"
             style="fill:none;stroke:#000000;stroke-width:15;stroke-linecap:round;stroke-linejoin:round;stroke-miterlimit:10;stroke-dasharray:none;stroke-opacity:1"
             id="path3318" /></g><g
           id="g3320"
           transform="translate(206.9312,205.8994)"><path
             d="m 0,0 v -94.908 c 0,-10.024 8.126,-18.151 18.15,-18.151 10.024,0 18.151,8.127 18.151,18.151 v 15.254"
             style="fill:none;stroke:#000000;stroke-width:15;stroke-linecap:round;stroke-linejoin:round;stroke-miterlimit:10;stroke-dasharray:none;stroke-opacity:1"
             id="path3322" /></g><g
           id="g3324"
           transform="translate(128.0166,199.2729)"><path
             d="m 0,0 v -88.282 c 0,-10.024 8.126,-18.15 18.15,-18.15 10.024,0 18.15,8.126 18.15,18.15 v 15.255"
             style="fill:none;stroke:#000000;stroke-width:15;stroke-linecap:round;stroke-linejoin:round;stroke-miterlimit:10;stroke-dasharray:none;stroke-opacity:1"
             id="path3326" /></g><g
           id="g3328"
           transform="translate(383.9834,199.2729)"><path
             d="m 0,0 v -88.282 c 0,-10.024 -8.126,-18.15 -18.15,-18.15 -10.024,0 -18.15,8.126 -18.15,18.15 v 15.255"
             style="fill:none;stroke:#000000;stroke-width:15;stroke-linecap:round;stroke-linejoin:round;stroke-miterlimit:10;stroke-dasharray:none;stroke-opacity:1"
             id="path3330" /></g><path
           d="M 101.452,143.44 H 76.107 v 307.38 h 25.345 z"
           style="fill:#596d76;fill-opacity:1;fill-rule:nonzero;stroke:#000000;stroke-width:15;stroke-linecap:round;stroke-linejoin:round;stroke-miterlimit:10;stroke-dasharray:none;stroke-opacity:1"
           id="path3332" /><path
           d="M 268.67,143.44 H 243.324 V 450.82 H 268.67 Z"
           style="fill:#596d76;fill-opacity:1;fill-rule:nonzero;stroke:#000000;stroke-width:15;stroke-linecap:round;stroke-linejoin:round;stroke-miterlimit:10;stroke-dasharray:none;stroke-opacity:1"
           id="path3334" /><path
           d="m 435.887,143.44 h -25.346 v 307.38 h 25.346 z"
           style="fill:#596d76;fill-opacity:1;fill-rule:nonzero;stroke:#000000;stroke-width:15;stroke-linecap:round;stroke-linejoin:round;stroke-miterlimit:10;stroke-dasharray:none;stroke-opacity:1"
           id="path3336" /><path
           d="M 92.646,7.5 H 59.233 v 126.165 h 33.413 z"
           style="fill:#7a8d98;fill-opacity:1;fill-rule:nonzero;stroke:none"
           id="path3338" /><path
           d="M 92.646,133.665 H 59.233 v -28.023 h 33.413 z"
           style="fill:#596d76;fill-opacity:1;fill-rule:nonzero;stroke:none"
           id="path3340" /><path
           d="M 92.646,7.5 H 59.233 v 126.165 h 33.413 z"
           style="fill:none;stroke:#000000;stroke-width:15;stroke-linecap:round;stroke-linejoin:round;stroke-miterlimit:10;stroke-dasharray:none;stroke-opacity:1"
           id="path3342" /><path
           d="m 452.764,7.5 h -33.413 v 126.165 h 33.413 z"
           style="fill:#7a8d98;fill-opacity:1;fill-rule:nonzero;stroke:none"
           id="path3344" /><path
           d="m 452.764,133.665 h -33.413 v -28.023 h 33.413 z"
           style="fill:#596d76;fill-opacity:1;fill-rule:nonzero;stroke:none"
           id="path3346" /><path
           d="m 452.764,7.5 h -33.413 v 126.165 h 33.413 z"
           style="fill:none;stroke:#000000;stroke-width:15;stroke-linecap:round;stroke-linejoin:round;stroke-miterlimit:10;stroke-dasharray:none;stroke-opacity:1"
           id="path3348" /><g
           id="g3350"
           transform="translate(469.2891,126.2456)"><path
             d="m 0,0 h -426.581 c -2.561,0 -4.637,2.076 -4.637,4.637 v 22.759 c 0,2.562 2.076,4.638 4.637,4.638 H 0 c 2.561,0 4.637,-2.076 4.637,-4.638 V 4.637 C 4.637,2.076 2.561,0 0,0"
             style="fill:#a0acb9;fill-opacity:1;fill-rule:nonzero;stroke:none"
             id="path3352" /></g><g
           id="g3354"
           transform="translate(473.9287,153.645)"><path
             d="m 0,0 v -22.759 c 0,-2.56 -2.078,-4.637 -4.637,-4.637 h -25.551 c 2.569,0 4.637,2.077 4.637,4.637 V 0 c 0,2.56 -2.068,4.637 -4.637,4.637 H -4.637 C -2.078,4.637 0,2.56 0,0"
             style="fill:#8d9da7;fill-opacity:1;fill-rule:nonzero;stroke:none"
             id="path3356" /></g><g
           id="g3358"
           transform="translate(324.4043,158.2793)"><path
             d="m 0,0 h -281.696 c -2.561,0 -4.637,-2.076 -4.637,-4.637 v -22.759 c 0,-2.562 2.076,-4.638 4.637,-4.638 h 426.581 c 2.561,0 4.637,2.076 4.637,4.638 v 22.759 c 0,2.561 -2.076,4.637 -4.637,4.637 L 33.324,0"
             style="fill:none;stroke:#000000;stroke-width:15;stroke-linecap:round;stroke-linejoin:round;stroke-miterlimit:10;stroke-dasharray:none;stroke-opacity:1"
             id="path3360" /></g><g
           id="g3362"
           transform="translate(28.8623,261.6899)"><path
             d="m 0,0 c 32.972,9.843 74.699,17.54 121.893,22.189 2.723,0.269 5.082,-1.88 5.082,-4.616 v -72.659 c 0,-2.389 -1.82,-4.381 -4.198,-4.614 -46.318,-4.519 -87.405,-11.97 -120.166,-21.506 -2.972,-0.865 -5.94,1.352 -5.94,4.448 v 72.309 c 0,2.057 1.357,3.861 3.329,4.449"
             style="fill:#68dbf9;fill-opacity:1;fill-rule:nonzero;stroke:none"
             id="path3364" /></g><g
           id="g3366"
           transform="translate(256,288.8828)"><path
             d="m 0,0 c 22.423,0 44.286,-0.649 65.332,-1.878 2.449,-0.144 4.356,-2.18 4.356,-4.634 v -72.685 c 0,-2.669 -2.243,-4.78 -4.907,-4.625 -20.876,1.209 -42.553,1.846 -64.781,1.846 -22.228,0 -43.905,-0.637 -64.781,-1.846 -2.664,-0.155 -4.907,1.956 -4.907,4.625 v 72.685 c 0,2.454 1.907,4.49 4.356,4.634 C -44.286,-0.649 -22.423,0 0,0"
             style="fill:#68dbf9;fill-opacity:1;fill-rule:nonzero;stroke:none"
             id="path3368" /></g><g
           id="g3370"
           transform="translate(486.4668,257.2412)"><path
             d="m 0,0 v -72.31 c 0,-3.095 -2.968,-5.313 -5.94,-4.447 -32.761,9.535 -73.848,16.987 -120.166,21.506 -2.378,0.232 -4.198,2.225 -4.198,4.614 v 72.658 c 0,2.737 2.359,4.886 5.082,4.617 C -78.028,21.989 -36.301,14.292 -3.329,4.449 -1.357,3.86 0,2.057 0,0"
             style="fill:#68dbf9;fill-opacity:1;fill-rule:nonzero;stroke:none"
             id="path3372" /></g><g
           id="g3374"
           transform="translate(28.8623,261.6899)"><path
             d="m 0,0 c 32.972,9.843 74.699,17.54 121.893,22.189 2.723,0.269 5.082,-1.88 5.082,-4.616 v -72.659 c 0,-2.389 -1.82,-4.381 -4.198,-4.614 -46.318,-4.519 -87.405,-11.97 -120.166,-21.506 -2.972,-0.865 -5.94,1.352 -5.94,4.448 v 72.309 c 0,2.057 1.357,3.861 3.329,4.449"
             style="fill:#9ce6fb;fill-opacity:1;fill-rule:nonzero;stroke:none"
             id="path3376" /></g><g
           id="g3378"
           transform="translate(150.7554,283.8794)"><path
             d="m 0,0 c -8.012,-0.789 -15.854,-1.672 -23.534,-2.634 v -81.972 c 7.961,0.996 16.101,1.906 24.418,2.717 2.378,0.232 4.198,2.224 4.198,4.614 V -4.617 C 5.082,-1.88 2.723,0.269 0,0"
             style="fill:#68dbf9;fill-opacity:1;fill-rule:nonzero;stroke:none"
             id="path3380" /></g><g
           id="g3382"
           transform="translate(256,288.8828)"><path
             d="m 0,0 c 22.423,0 44.286,-0.649 65.332,-1.878 2.449,-0.144 4.356,-2.18 4.356,-4.634 v -72.685 c 0,-2.669 -2.243,-4.78 -4.907,-4.625 -20.876,1.209 -42.553,1.846 -64.781,1.846 -22.228,0 -43.905,-0.637 -64.781,-1.846 -2.664,-0.155 -4.907,1.956 -4.907,4.625 v 72.685 c 0,2.454 1.907,4.49 4.356,4.634 C -44.286,-0.649 -22.423,0 0,0"
             style="fill:#21c1f8;fill-opacity:1;fill-rule:nonzero;stroke:none"
             id="path3384" /></g><g
           id="g3386"
           transform="translate(321.3315,287.0044)"><path
             d="m 0,0 c -7.679,0.449 -15.478,0.81 -23.363,1.099 v -81.975 c 7.697,-0.282 15.312,-0.633 22.812,-1.068 2.665,-0.154 4.907,1.956 4.907,4.625 V -4.634 C 4.356,-2.179 2.45,-0.144 0,0"
             style="fill:#1faaee;fill-opacity:1;fill-rule:nonzero;stroke:none"
             id="path3388" /></g><g
           id="g3390"
           transform="translate(486.4668,257.2412)"><path
             d="m 0,0 v -72.31 c 0,-3.095 -2.968,-5.313 -5.94,-4.447 -32.761,9.535 -73.848,16.987 -120.166,21.506 -2.378,0.232 -4.198,2.225 -4.198,4.614 v 72.658 c 0,2.737 2.359,4.886 5.082,4.617 C -78.028,21.989 -36.301,14.292 -3.329,4.449 -1.357,3.86 0,2.057 0,0"
             style="fill:#68dbf9;fill-opacity:1;fill-rule:nonzero;stroke:none"
             id="path3392" /></g><g
           id="g3394"
           transform="translate(483.1377,261.6899)"><path
             d="m 0,0 c -6.691,1.998 -13.76,3.902 -21.145,5.715 v -81.971 c 6.434,-1.58 12.624,-3.23 18.534,-4.95 2.972,-0.865 5.94,1.352 5.94,4.448 V -4.449 C 3.329,-2.392 1.972,-0.588 0,0"
             style="fill:#21c1f8;fill-opacity:1;fill-rule:nonzero;stroke:none"
             id="path3396" /></g><g
           id="g3398"
           transform="translate(25.5332,207.8965)"><path
             d="m 0,0 v -22.965 c 0,-3.095 2.968,-5.312 5.94,-4.448 32.761,9.536 73.848,16.988 120.166,21.507 2.378,0.232 4.198,2.224 4.198,4.614 v 72.658 c 0,2.737 -2.359,4.885 -5.081,4.617 C 78.028,71.333 36.301,63.637 3.329,53.793 1.357,53.205 0,51.402 0,49.345 V 33.324"
             style="fill:none;stroke:#000000;stroke-width:15;stroke-linecap:round;stroke-linejoin:round;stroke-miterlimit:10;stroke-dasharray:none;stroke-opacity:1"
             id="path3400" /></g><g
           id="g3402"
           transform="translate(256,288.8828)"><path
             d="m 0,0 c 22.423,0 44.286,-0.649 65.332,-1.878 2.449,-0.144 4.356,-2.18 4.356,-4.634 v -72.685 c 0,-2.669 -2.243,-4.78 -4.907,-4.625 -20.876,1.209 -42.553,1.846 -64.781,1.846 -22.228,0 -43.905,-0.637 -64.781,-1.846 -2.664,-0.155 -4.907,1.956 -4.907,4.625 v 72.685 c 0,2.454 1.907,4.49 4.356,4.634 C -44.286,-0.649 -22.423,0 0,0 Z"
             style="fill:none;stroke:#000000;stroke-width:15;stroke-linecap:round;stroke-linejoin:round;stroke-miterlimit:10;stroke-dasharray:none;stroke-opacity:1"
             id="path3404" /></g><g
           id="g3406"
           transform="translate(486.4668,257.2412)"><path
             d="m 0,0 v -72.31 c 0,-3.095 -2.968,-5.313 -5.94,-4.447 -32.761,9.535 -73.848,16.987 -120.166,21.506 -2.378,0.232 -4.198,2.225 -4.198,4.614 v 72.658 c 0,2.737 2.359,4.886 5.082,4.617 C -78.028,21.989 -36.301,14.292 -3.329,4.449 -1.357,3.86 0,2.057 0,0 Z"
             style="fill:none;stroke:#000000;stroke-width:15;stroke-linecap:round;stroke-linejoin:round;stroke-miterlimit:10;stroke-dasharray:none;stroke-opacity:1"
             id="path3408" /></g><g
           id="g3410"
           transform="translate(28.8623,369.4985)"><path
             d="m 0,0 c 32.972,9.843 74.699,17.54 121.893,22.189 2.723,0.269 5.082,-1.88 5.082,-4.616 v -72.659 c 0,-2.39 -1.82,-4.382 -4.198,-4.614 -46.318,-4.519 -87.405,-11.97 -120.166,-21.506 -2.972,-0.865 -5.94,1.352 -5.94,4.448 v 72.309 c 0,2.057 1.357,3.861 3.329,4.449"
             style="fill:#68dbf9;fill-opacity:1;fill-rule:nonzero;stroke:none"
             id="path3412" /></g><g
           id="g3414"
           transform="translate(256,396.6914)"><path
             d="m 0,0 c 22.423,0 44.286,-0.649 65.332,-1.879 2.449,-0.143 4.356,-2.179 4.356,-4.633 v -72.685 c 0,-2.67 -2.243,-4.78 -4.907,-4.625 -20.876,1.209 -42.553,1.846 -64.781,1.846 -22.228,0 -43.905,-0.637 -64.781,-1.846 -2.664,-0.155 -4.907,1.955 -4.907,4.625 v 72.685 c 0,2.454 1.907,4.49 4.356,4.633 C -44.286,-0.649 -22.423,0 0,0"
             style="fill:#68dbf9;fill-opacity:1;fill-rule:nonzero;stroke:none"
             id="path3416" /></g><g
           id="g3418"
           transform="translate(486.4668,365.0493)"><path
             d="m 0,0 v -72.309 c 0,-3.095 -2.968,-5.313 -5.94,-4.448 -32.761,9.536 -73.848,16.987 -120.166,21.507 -2.378,0.231 -4.198,2.224 -4.198,4.613 v 72.659 c 0,2.736 2.359,4.885 5.082,4.617 C -78.028,21.989 -36.301,14.292 -3.329,4.449 -1.357,3.861 0,2.058 0,0"
             style="fill:#68dbf9;fill-opacity:1;fill-rule:nonzero;stroke:none"
             id="path3420" /></g><g
           id="g3422"
           transform="translate(28.8623,369.4985)"><path
             d="m 0,0 c 32.972,9.843 74.699,17.54 121.893,22.189 2.723,0.269 5.082,-1.88 5.082,-4.616 v -72.659 c 0,-2.39 -1.82,-4.382 -4.198,-4.614 -46.318,-4.519 -87.405,-11.97 -120.166,-21.506 -2.972,-0.865 -5.94,1.352 -5.94,4.448 v 72.309 c 0,2.057 1.357,3.861 3.329,4.449"
             style="fill:#9ce6fb;fill-opacity:1;fill-rule:nonzero;stroke:none"
             id="path3424" /></g><g
           id="g3426"
           transform="translate(150.7554,391.688)"><path
             d="m 0,0 c -8.012,-0.789 -15.854,-1.673 -23.534,-2.634 v -81.972 c 7.961,0.995 16.101,1.905 24.418,2.717 2.378,0.232 4.198,2.224 4.198,4.614 V -4.617 C 5.082,-1.88 2.723,0.269 0,0"
             style="fill:#68dbf9;fill-opacity:1;fill-rule:nonzero;stroke:none"
             id="path3428" /></g><g
           id="g3430"
           transform="translate(256,396.6914)"><path
             d="m 0,0 c 22.423,0 44.286,-0.649 65.332,-1.879 2.449,-0.143 4.356,-2.179 4.356,-4.633 v -72.685 c 0,-2.67 -2.243,-4.78 -4.907,-4.625 -20.876,1.209 -42.553,1.846 -64.781,1.846 -22.228,0 -43.905,-0.637 -64.781,-1.846 -2.664,-0.155 -4.907,1.955 -4.907,4.625 v 72.685 c 0,2.454 1.907,4.49 4.356,4.633 C -44.286,-0.649 -22.423,0 0,0"
             style="fill:#21c1f8;fill-opacity:1;fill-rule:nonzero;stroke:none"
             id="path3432" /></g><g
           id="g3434"
           transform="translate(321.3315,394.8125)"><path
             d="m 0,0 c -7.679,0.449 -15.478,0.811 -23.363,1.1 v -81.975 c 7.697,-0.283 15.312,-0.634 22.812,-1.068 2.665,-0.155 4.907,1.955 4.907,4.625 V -4.633 C 4.356,-2.179 2.45,-0.143 0,0"
             style="fill:#1faaee;fill-opacity:1;fill-rule:nonzero;stroke:none"
             id="path3436" /></g><g
           id="g3438"
           transform="translate(486.4668,365.0493)"><path
             d="m 0,0 v -72.309 c 0,-3.095 -2.968,-5.313 -5.94,-4.448 -32.761,9.536 -73.848,16.987 -120.166,21.507 -2.378,0.231 -4.198,2.224 -4.198,4.613 v 72.659 c 0,2.736 2.359,4.885 5.082,4.617 C -78.028,21.989 -36.301,14.292 -3.329,4.449 -1.357,3.861 0,2.058 0,0"
             style="fill:#68dbf9;fill-opacity:1;fill-rule:nonzero;stroke:none"
             id="path3440" /></g><g
           id="g3442"
           transform="translate(483.1377,369.4985)"><path
             d="m 0,0 c -6.691,1.998 -13.76,3.901 -21.145,5.715 v -81.971 c 6.434,-1.58 12.624,-3.23 18.534,-4.95 2.972,-0.865 5.94,1.352 5.94,4.448 V -4.449 C 3.329,-2.392 1.972,-0.588 0,0"
             style="fill:#21c1f8;fill-opacity:1;fill-rule:nonzero;stroke:none"
             id="path3444" /></g><g
           id="g3446"
           transform="translate(28.8623,369.4985)"><path
             d="m 0,0 c 32.972,9.843 74.699,17.54 121.893,22.189 2.723,0.269 5.082,-1.88 5.082,-4.616 v -72.659 c 0,-2.39 -1.82,-4.382 -4.198,-4.614 -46.318,-4.519 -87.405,-11.97 -120.166,-21.506 -2.972,-0.865 -5.94,1.352 -5.94,4.448 v 72.309 c 0,2.057 1.357,3.861 3.329,4.449 z"
             style="fill:none;stroke:#000000;stroke-width:15;stroke-linecap:round;stroke-linejoin:round;stroke-miterlimit:10;stroke-dasharray:none;stroke-opacity:1"
             id="path3448" /></g><g
           id="g3450"
           transform="translate(256,396.6914)"><path
             d="m 0,0 c 22.423,0 44.286,-0.649 65.332,-1.879 2.449,-0.143 4.356,-2.179 4.356,-4.633 v -72.685 c 0,-2.67 -2.243,-4.78 -4.907,-4.625 -20.876,1.209 -42.553,1.846 -64.781,1.846 -22.228,0 -43.905,-0.637 -64.781,-1.846 -2.664,-0.155 -4.907,1.955 -4.907,4.625 v 72.685 c 0,2.454 1.907,4.49 4.356,4.633 C -44.286,-0.649 -22.423,0 0,0 Z"
             style="fill:none;stroke:#000000;stroke-width:15;stroke-linecap:round;stroke-linejoin:round;stroke-miterlimit:10;stroke-dasharray:none;stroke-opacity:1"
             id="path3452" /></g><g
           id="g3454"
           transform="translate(486.4668,365.0493)"><path
             d="m 0,0 v -72.309 c 0,-3.095 -2.968,-5.313 -5.94,-4.448 -32.761,9.536 -73.848,16.987 -120.166,21.507 -2.378,0.231 -4.198,2.224 -4.198,4.613 v 72.659 c 0,2.736 2.359,4.885 5.082,4.617 C -78.028,21.989 -36.301,14.292 -3.329,4.449 -1.357,3.861 0,2.058 0,0 Z"
             style="fill:none;stroke:#000000;stroke-width:15;stroke-linecap:round;stroke-linejoin:round;stroke-miterlimit:10;stroke-dasharray:none;stroke-opacity:1"
             id="path3456" /></g><g
           id="g3458"
           transform="translate(28.8623,477.3071)"><path
             d="m 0,0 c 32.972,9.843 74.699,17.54 121.893,22.189 2.723,0.269 5.082,-1.88 5.082,-4.616 v -72.659 c 0,-2.39 -1.82,-4.382 -4.198,-4.614 -46.318,-4.519 -87.405,-11.971 -120.166,-21.506 -2.972,-0.865 -5.94,1.352 -5.94,4.448 v 72.309 c 0,2.057 1.357,3.861 3.329,4.449"
             style="fill:#68dbf9;fill-opacity:1;fill-rule:nonzero;stroke:none"
             id="path3460" /></g><g
           id="g3462"
           transform="translate(256,504.5)"><path
             d="m 0,0 c 22.423,0 44.286,-0.649 65.332,-1.879 2.449,-0.143 4.356,-2.179 4.356,-4.633 v -72.685 c 0,-2.67 -2.243,-4.78 -4.907,-4.626 -20.876,1.209 -42.553,1.847 -64.781,1.847 -22.228,0 -43.905,-0.638 -64.781,-1.847 -2.664,-0.154 -4.907,1.956 -4.907,4.626 v 72.685 c 0,2.454 1.907,4.49 4.356,4.633 C -44.286,-0.649 -22.423,0 0,0"
             style="fill:#68dbf9;fill-opacity:1;fill-rule:nonzero;stroke:none"
             id="path3464" /></g><g
           id="g3466"
           transform="translate(486.4668,472.8579)"><path
             d="m 0,0 v -72.309 c 0,-3.096 -2.968,-5.313 -5.94,-4.448 -32.761,9.535 -73.848,16.987 -120.166,21.507 -2.378,0.231 -4.198,2.224 -4.198,4.613 v 72.659 c 0,2.736 2.359,4.885 5.082,4.617 C -78.028,21.989 -36.301,14.292 -3.329,4.449 -1.357,3.861 0,2.058 0,0"
             style="fill:#68dbf9;fill-opacity:1;fill-rule:nonzero;stroke:none"
             id="path3468" /></g><g
           id="g3470"
           transform="translate(28.8623,477.3071)"><path
             d="m 0,0 c 32.972,9.843 74.699,17.54 121.893,22.189 2.723,0.269 5.082,-1.88 5.082,-4.616 v -72.659 c 0,-2.39 -1.82,-4.382 -4.198,-4.614 -46.318,-4.519 -87.405,-11.971 -120.166,-21.506 -2.972,-0.865 -5.94,1.352 -5.94,4.448 v 72.309 c 0,2.057 1.357,3.861 3.329,4.449"
             style="fill:#9ce6fb;fill-opacity:1;fill-rule:nonzero;stroke:none"
             id="path3472" /></g><g
           id="g3474"
           transform="translate(150.7554,499.4966)"><path
             d="m 0,0 c -8.012,-0.79 -15.854,-1.673 -23.534,-2.634 v -81.972 c 7.961,0.995 16.101,1.905 24.418,2.717 2.378,0.232 4.198,2.224 4.198,4.614 V -4.617 C 5.082,-1.881 2.723,0.268 0,0"
             style="fill:#68dbf9;fill-opacity:1;fill-rule:nonzero;stroke:none"
             id="path3476" /></g><g
           id="g3478"
           transform="translate(256,504.5)"><path
             d="m 0,0 c 22.423,0 44.286,-0.649 65.332,-1.879 2.449,-0.143 4.356,-2.179 4.356,-4.633 v -72.685 c 0,-2.67 -2.243,-4.78 -4.907,-4.626 -20.876,1.209 -42.553,1.847 -64.781,1.847 -22.228,0 -43.905,-0.638 -64.781,-1.847 -2.664,-0.154 -4.907,1.956 -4.907,4.626 v 72.685 c 0,2.454 1.907,4.49 4.356,4.633 C -44.286,-0.649 -22.423,0 0,0"
             style="fill:#21c1f8;fill-opacity:1;fill-rule:nonzero;stroke:none"
             id="path3480" /></g><g
           id="g3482"
           transform="translate(321.3315,502.6211)"><path
             d="m 0,0 c -7.679,0.449 -15.478,0.81 -23.363,1.1 v -81.975 c 7.697,-0.283 15.312,-0.634 22.812,-1.069 2.665,-0.154 4.907,1.956 4.907,4.626 V -4.633 C 4.356,-2.179 2.45,-0.143 0,0"
             style="fill:#1faaee;fill-opacity:1;fill-rule:nonzero;stroke:none"
             id="path3484" /></g><g
           id="g3486"
           transform="translate(486.4668,472.8579)"><path
             d="m 0,0 v -72.309 c 0,-3.096 -2.968,-5.313 -5.94,-4.448 -32.761,9.535 -73.848,16.987 -120.166,21.507 -2.378,0.231 -4.198,2.224 -4.198,4.613 v 72.659 c 0,2.736 2.359,4.885 5.082,4.617 C -78.028,21.989 -36.301,14.292 -3.329,4.449 -1.357,3.861 0,2.058 0,0"
             style="fill:#68dbf9;fill-opacity:1;fill-rule:nonzero;stroke:none"
             id="path3488" /></g><g
           id="g3490"
           transform="translate(483.1377,477.3071)"><path
             d="m 0,0 c -6.691,1.998 -13.76,3.901 -21.145,5.715 v -81.972 c 6.434,-1.579 12.624,-3.229 18.534,-4.949 2.972,-0.865 5.94,1.352 5.94,4.448 V -4.449 C 3.329,-2.392 1.972,-0.588 0,0"
             style="fill:#21c1f8;fill-opacity:1;fill-rule:nonzero;stroke:none"
             id="path3492" /></g><g
           id="g3494"
           transform="translate(28.8623,477.3071)"><path
             d="m 0,0 c 32.972,9.843 74.699,17.54 121.893,22.189 2.723,0.269 5.082,-1.88 5.082,-4.616 v -72.659 c 0,-2.39 -1.82,-4.382 -4.198,-4.614 -46.318,-4.519 -87.405,-11.971 -120.166,-21.506 -2.972,-0.865 -5.94,1.352 -5.94,4.448 v 72.309 c 0,2.057 1.357,3.861 3.329,4.449 z"
             style="fill:none;stroke:#000000;stroke-width:15;stroke-linecap:round;stroke-linejoin:round;stroke-miterlimit:10;stroke-dasharray:none;stroke-opacity:1"
             id="path3496" /></g><g
           id="g3498"
           transform="translate(256,504.5)"><path
             d="m 0,0 c 22.423,0 44.286,-0.649 65.332,-1.879 2.449,-0.143 4.356,-2.179 4.356,-4.633 v -72.685 c 0,-2.67 -2.243,-4.78 -4.907,-4.626 -20.876,1.209 -42.553,1.847 -64.781,1.847 -22.228,0 -43.905,-0.638 -64.781,-1.847 -2.664,-0.154 -4.907,1.956 -4.907,4.626 v 72.685 c 0,2.454 1.907,4.49 4.356,4.633 C -44.286,-0.649 -22.423,0 0,0 Z"
             style="fill:none;stroke:#000000;stroke-width:15;stroke-linecap:round;stroke-linejoin:round;stroke-miterlimit:10;stroke-dasharray:none;stroke-opacity:1"
             id="path3500" /></g><g
           id="g3502"
           transform="translate(356.1626,443.4668)"><path
             d="m 0,0 v -21.246 c 0,-2.389 1.82,-4.381 4.198,-4.613 46.318,-4.519 87.405,-11.971 120.166,-21.507 2.972,-0.865 5.94,1.352 5.94,4.448 v 72.309 c 0,2.058 -1.357,3.861 -3.329,4.449 C 94.003,43.684 52.276,51.38 5.082,56.03 2.359,56.298 0,54.149 0,51.413 V 33.324"
             style="fill:none;stroke:#000000;stroke-width:15;stroke-linecap:round;stroke-linejoin:round;stroke-miterlimit:10;stroke-dasharray:none;stroke-opacity:1"
             id="path3504" /></g><g
           id="g3506"
           transform="translate(209.8809,265.1074)"><path
             d="M 0,0 H 6.722"
             style="fill:none;stroke:#000000;stroke-width:15;stroke-linecap:round;stroke-linejoin:round;stroke-miterlimit:10;stroke-dasharray:none;stroke-opacity:1"
             id="path3508" /></g><g
           id="g3510"
           transform="translate(209.8809,372.6646)"><path
             d="M 0,0 H 6.722"
             style="fill:none;stroke:#000000;stroke-width:15;stroke-linecap:round;stroke-linejoin:round;stroke-miterlimit:10;stroke-dasharray:none;stroke-opacity:1"
             id="path3512" /></g><g
           id="g3514"
           transform="translate(209.8809,480.4458)"><path
             d="M 0,0 H 6.722"
             style="fill:none;stroke:#000000;stroke-width:15;stroke-linecap:round;stroke-linejoin:round;stroke-miterlimit:10;stroke-dasharray:none;stroke-opacity:1"
             id="path3516" /></g><g
           id="g3518"
           transform="translate(128.0166,307.0815)"><path
             d="M 0,0 V -23.202"
             style="fill:none;stroke:#000000;stroke-width:15;stroke-linecap:round;stroke-linejoin:round;stroke-miterlimit:10;stroke-dasharray:none;stroke-opacity:1"
             id="path3520" /></g><g
           id="g3522"
           transform="translate(128.0166,413.9663)"><path
             d="M 0,0 V -23.202"
             style="fill:none;stroke:#000000;stroke-width:15;stroke-linecap:round;stroke-linejoin:round;stroke-miterlimit:10;stroke-dasharray:none;stroke-opacity:1"
             id="path3524" /></g><g
           id="g3526"
           transform="translate(383.9834,306.4116)"><path
             d="M 0,0 V -22.018"
             style="fill:none;stroke:#000000;stroke-width:15;stroke-linecap:round;stroke-linejoin:round;stroke-miterlimit:10;stroke-dasharray:none;stroke-opacity:1"
             id="path3528" /></g><g
           id="g3530"
           transform="translate(383.9834,413.3745)"><path
             d="M 0,0 V -22.018"
             style="fill:none;stroke:#000000;stroke-width:15;stroke-linecap:round;stroke-linejoin:round;stroke-miterlimit:10;stroke-dasharray:none;stroke-opacity:1"
             id="path3532" /></g><g
           id="g3534"
           transform="translate(305.0688,313.4565)"><path
             d="M 0,0 V -22.743"
             style="fill:none;stroke:#000000;stroke-width:15;stroke-linecap:round;stroke-linejoin:round;stroke-miterlimit:10;stroke-dasharray:none;stroke-opacity:1"
             id="path3536" /></g><g
           id="g3538"
           transform="translate(305.0688,421.0137)"><path
             d="M 0,0 V -22.743"
             style="fill:none;stroke:#000000;stroke-width:15;stroke-linecap:round;stroke-linejoin:round;stroke-miterlimit:10;stroke-dasharray:none;stroke-opacity:1"
             id="path3540" /></g><g
           id="g3542"
           transform="translate(206.9312,313.4565)"><path
             d="M 0,0 V -22.743"
             style="fill:none;stroke:#000000;stroke-width:15;stroke-linecap:round;stroke-linejoin:round;stroke-miterlimit:10;stroke-dasharray:none;stroke-opacity:1"
             id="path3544" /></g><g
           id="g3546"
           transform="translate(206.9312,421.0137)"><path
             d="M 0,0 V -22.743"
             style="fill:none;stroke:#000000;stroke-width:15;stroke-linecap:round;stroke-linejoin:round;stroke-miterlimit:10;stroke-dasharray:none;stroke-opacity:1"
             id="path3548" /></g></g></g></g></svg>
