<?xml version="1.0" encoding="iso-8859-1"?>
<!-- Generator: Adobe Illustrator 19.0.0, SVG Export Plug-In . SVG Version: 6.00 Build 0)  -->
<svg xmlns="http://www.w3.org/2000/svg" xmlns:xlink="http://www.w3.org/1999/xlink" version="1.1" id="Layer_1" x="0px" y="0px" viewBox="0 0 511.954 511.954" style="enable-background:new 0 0 511.954 511.954;" xml:space="preserve" width="512" height="512">
<g>
	<g>
		<g>
			<g>
				<g>
					<path style="fill:#B9EBFF;" d="M352.593,56.42c-7.868,0-15.41,1.39-22.398,3.934C316.076,29.184,284.691,7.5,248.24,7.5       c-49.617,0-89.847,40.178-89.921,89.768c-0.001,0-0.001,0-0.002,0c-24.87,0-45.031,20.157-45.031,45.022       s20.161,45.022,45.031,45.022c14.711,0,175.621,0,194.276,0c36.152,0,65.459-29.301,65.459-65.446S388.745,56.42,352.593,56.42       z"/>
				</g>
			</g>
			<g>
				<g>
					<path style="fill:#B9EBFF;" d="M302.503,79.732c12.008-14.255,29.991-23.312,50.091-23.312       c36.152,0,65.459,29.301,65.459,65.446"/>
				</g>
			</g>
			<g>
				<g>
					<path style="fill:#B9EBFF;" d="M113.287,142.29c0-24.865,20.161-45.022,45.031-45.022c9.326,0,17.99,2.835,25.177,7.689"/>
				</g>
			</g>
			<g>
				<g>
					<path style="fill:#A0DCF0;" d="M348.4,68.158c29.45,0,54.348,19.449,62.569,46.198c1.061,3.451,3.611,6.243,7.004,7.48       l0.079,0.029c0-36.145-29.307-65.446-65.459-65.446c-20.099,0-38.083,9.057-50.091,23.312v0       c3.515,1.282,7.409,0.799,10.556-1.223C323.253,71.958,335.382,68.158,348.4,68.158z"/>
				</g>
			</g>
			<g>
				<g>
					<path style="fill:#A0DCF0;" d="M158.317,104.814c4.17,0,8.206,0.568,12.037,1.629c4.402,1.219,9.106,0.659,13.14-1.486l0,0       c-7.187-4.854-15.851-7.689-25.177-7.689c-24.87,0-45.031,20.157-45.031,45.022l0.709-0.377       C117.742,120.828,136.153,104.814,158.317,104.814z"/>
				</g>
			</g>
		</g>
		<g>
			<g>
				<path style="fill:#80C0FF;" d="M280.081,286.851v142.96H20.501v-142.96c0-9.79,7.94-17.728,17.731-17.728H262.36      C272.142,269.123,280.081,277.061,280.081,286.851z"/>
			</g>
		</g>
		<g>
			<g>
				<path style="fill:#707384;" d="M20.506,429.807h259.575v33.494c0,2.391-1.938,4.328-4.328,4.328H24.834      c-2.39,0-4.328-1.938-4.328-4.328V429.807z"/>
			</g>
		</g>
		<g>
			<g>
				<path style="fill:#5B5C6C;" d="M165.894,429.807v33.494c0,2.39-1.938,4.328-4.329,4.328h114.187      c2.391,0,4.329-1.938,4.329-4.328v-33.494H165.894z"/>
			</g>
		</g>
		<g>
			<g>
				<rect x="120.769" y="467.629" style="fill:#C7CFE2;" width="59.047" height="36.824"/>
			</g>
		</g>
		<g>
			<g>
				<rect x="120.769" y="467.629" style="fill:#AFB9D2;" width="59.047" height="14.51"/>
			</g>
		</g>
		<g>
			<g>
				<path style="fill:#E4EAF7;" d="M438.786,504.454H197.131c-9.562,0-17.314-7.752-17.314-17.314v-9.341      c0-0.91,0.737-1.647,1.647-1.647h272.988c0.91,0,1.647,0.737,1.647,1.647v9.341C456.1,496.702,448.348,504.454,438.786,504.454z      "/>
			</g>
		</g>
		<g>
			<g>
				<path style="fill:#D7DEED;" d="M454.452,476.152h-64.709c0.91,0,1.647,0.737,1.647,1.647v9.343      c0,9.561-7.752,17.312-17.315,17.312h64.709c9.563,0,17.315-7.751,17.315-17.312v-9.343      C456.1,476.889,455.362,476.152,454.452,476.152z"/>
			</g>
		</g>
		<g>
			<g>
				<path style="fill:#54A1FF;" d="M280.081,289.145v140.666H165.894V326.039c0-20.384,16.514-36.895,36.892-36.895H280.081z"/>
			</g>
		</g>
		<g>
			<g>
				<path style="fill:#707384;" d="M443.649,325.898v150.255H192.27V325.898c0-10.484,8.514-18.996,18.999-18.996h213.37      C435.135,306.903,443.649,315.415,443.649,325.898z"/>
			</g>
		</g>
		<g>
			<g>
				<path style="fill:#5F6273;" d="M443.649,340.024v136.129h-52.258V363.618c0-13.029,10.566-23.594,23.598-23.594H443.649z"/>
			</g>
		</g>
		<g>
			<g>
				<path style="fill:#FFCD74;" d="M426.332,462.331H209.584V333.53c0-5.304,4.3-9.604,9.604-9.604h197.54      c5.304,0,9.604,4.3,9.604,9.604V462.331z"/>
			</g>
		</g>
		<g>
			<g>
				<path style="fill:#FFB96A;" d="M426.33,340.024v122.305h-34.94v-98.711c0-13.029,10.566-23.594,23.598-23.594H426.33z"/>
			</g>
		</g>
		<g>
			<g>
				<path style="fill:#B9EBFF;" d="M475.483,504.454H422.51c-8.817,0-15.965-7.148-15.965-15.965V372.728      c0-8.817,7.148-15.965,15.965-15.965h52.973c8.817,0,15.965,7.148,15.965,15.965v115.761      C491.448,497.306,484.301,504.454,475.483,504.454z"/>
			</g>
		</g>
	</g>
	<g>
		<path d="M158.317,194.812h49.66c4.142,0,7.5-3.357,7.5-7.5s-3.358-7.5-7.5-7.5h-49.66c-20.694,0-37.531-16.832-37.531-37.521    c0-20.69,16.836-37.522,37.531-37.522c7.521,0,14.775,2.215,20.978,6.404c3.433,2.321,8.095,1.416,10.413-2.017    c2.319-3.433,1.416-8.095-2.017-10.413c-6.514-4.4-13.851-7.245-21.549-8.395C169.742,48.213,205.198,15,248.24,15    c29.749,0,57.098,16.135,71.653,41.672c-8.752,4.39-16.645,10.532-23.127,18.227c-2.668,3.168-2.264,7.899,0.905,10.568    c3.167,2.667,7.899,2.263,10.568-0.904c6.844-8.125,15.652-14.098,25.436-17.472c0.178-0.062,0.357-0.122,0.535-0.182    c0.832-0.278,1.67-0.538,2.515-0.778c0.103-0.029,0.205-0.061,0.307-0.09c1.951-0.542,3.935-0.983,5.944-1.32    c0.128-0.021,0.257-0.038,0.386-0.059c0.828-0.133,1.662-0.247,2.498-0.344c0.252-0.029,0.504-0.056,0.756-0.082    c0.743-0.077,1.489-0.136,2.238-0.185c0.263-0.017,0.525-0.038,0.789-0.051c0.98-0.05,1.963-0.081,2.95-0.081    c31.958,0,57.959,25.994,57.959,57.945c0,31.952-26,57.946-57.959,57.946h-115.95c-4.142,0-7.5,3.357-7.5,7.5s3.358,7.5,7.5,7.5    h115.95c40.229,0,72.959-32.724,72.959-72.946c0-2.514-0.128-4.999-0.377-7.448c-3.743-36.737-34.866-65.498-72.582-65.498    c-1.238,0-2.472,0.04-3.702,0.101c-0.173,0.009-0.346,0.015-0.518,0.025c-1.203,0.069-2.401,0.169-3.595,0.296    c-0.148,0.016-0.296,0.033-0.444,0.05c-3.466,0.391-6.892,1.02-10.259,1.901C317.188,19.928,284.189,0,248.24,0    c-51.286,0-93.491,39.888-97.164,90.265c-19.741,2.727-36.665,17.013-42.769,35.964c-1.667,5.175-2.521,10.624-2.521,16.061    C105.787,171.25,129.352,194.812,158.317,194.812z"/>
		<path d="M475.483,349.263h-24.339v-23.358c0-14.611-11.888-26.499-26.5-26.499H287.581v-12.558    c0-13.907-11.314-25.222-25.222-25.222H38.227c-13.907,0-25.221,11.314-25.221,25.222v142.96v33.493    c0,6.522,5.306,11.829,11.828,11.829h88.436v21.824h-5.238c-4.142,0-7.5,3.357-7.5,7.5s3.358,7.5,7.5,7.5h12.738h59.047h12.738    c0.559,0,1.101-0.066,1.625-0.182c0.969,0.115,1.952,0.182,2.951,0.182H422.51h16.275h36.698    c12.938,0,23.465-10.526,23.465-23.465V372.729C498.948,359.789,488.422,349.263,475.483,349.263z M436.144,325.904v23.358H422.51    c-12.939,0-23.465,10.526-23.465,23.466v95.923h-17.734c-4.142,0-7.5,3.357-7.5,7.5s3.358,7.5,7.5,7.5h17.734v4.838    c0,2.984,0.566,5.837,1.586,8.465h-203.5c-5.412,0-9.814-4.402-9.814-9.814v-3.488h165.66c4.142,0,7.5-3.357,7.5-7.5    s-3.358-7.5-7.5-7.5H199.772v-0.267c0.025-0.248,0.038-0.5,0.038-0.755s-0.013-0.507-0.038-0.755V325.904    c0-6.341,5.159-11.499,11.5-11.499h213.373C430.985,314.405,436.144,319.563,436.144,325.904z M28.006,437.308h130.305    c4.142,0,7.5-3.357,7.5-7.5s-3.358-7.5-7.5-7.5H28.006v-135.46c0-5.637,4.585-10.222,10.221-10.222h224.132    c5.636,0,10.222,4.585,10.222,10.222v12.558h-61.309c-14.612,0-26.5,11.888-26.5,26.499V460.13h-4.956H120.77H28.006V437.308z     M128.27,496.954V475.13h44.047v2.669v9.341v9.814H128.27z M483.948,488.489c0,4.668-3.797,8.465-8.465,8.465h-36.698H422.51    c-4.668,0-8.465-3.797-8.465-8.465V372.729c0-4.668,3.797-8.466,8.465-8.466h52.973c4.667,0,8.465,3.798,8.465,8.466V488.489z"/>
		<circle cx="448.997" cy="480.119" r="7.546"/>
		<path d="M456.825,373.775h-15.656c-4.142,0-7.5,3.357-7.5,7.5s3.358,7.5,7.5,7.5h15.656c4.142,0,7.5-3.357,7.5-7.5    S460.967,373.775,456.825,373.775z"/>
		<path d="M184.772,209.229c0,4.371-3.558,7.927-7.93,7.927h-34.134c-12.644,0-22.93,10.285-22.93,22.928v2.683    c0,4.143,3.358,7.5,7.5,7.5s7.5-3.357,7.5-7.5v-2.683c0-4.371,3.558-7.928,7.93-7.928h34.134c12.644,0,22.93-10.285,22.93-22.927    c0-4.143-3.358-7.5-7.5-7.5C188.13,201.729,184.772,205.086,184.772,209.229z"/>
		<path d="M311.771,286.486c4.142,0,7.5-3.357,7.5-7.5v-38.903c0-12.643-10.287-22.928-22.93-22.928h-33.905    c-4.373,0-7.93-3.556-7.93-7.927c0-4.143-3.358-7.5-7.5-7.5s-7.5,3.357-7.5,7.5c0,12.642,10.287,22.927,22.93,22.927h33.905    c4.373,0,7.93,3.557,7.93,7.928v38.903C304.271,283.129,307.628,286.486,311.771,286.486z"/>
		<path d="M349.1,209.229c0-4.143-3.358-7.5-7.5-7.5s-7.5,3.357-7.5,7.5c0,12.642,10.287,22.927,22.93,22.927h96.967    c4.373,0,7.93,3.557,7.93,7.928v87.197c0,4.143,3.358,7.5,7.5,7.5s7.5-3.357,7.5-7.5v-87.197c0-12.643-10.287-22.928-22.93-22.928    H357.03C352.657,217.155,349.1,213.6,349.1,209.229z"/>
	</g>
</g>















</svg>
