<svg id="Layer_1" enable-background="new 0 0 512 512" viewBox="0 0 512 512" xmlns="http://www.w3.org/2000/svg"><g><path d="m39.7 411.6h-19.1c-4.2 0-7.6-3.4-7.6-7.6v-47.5c0-4.2 3.4-7.6 7.6-7.6h19.2c-4.2 0-7.6 3.4-7.6 7.6v47.5c-.1 4.2 3.3 7.6 7.5 7.6z" fill="#58dd8e"/><path d="m236 348.8c-8.2 14.1-13.6 29.4-15.9 45.2 0 0-.1.1-.1.1-.1.3-.1.7-.2 1-.8 5.4-1.2 10.9-1.2 16.4 0 3.1.1 6.2.3 9.3-3.2-2.7-6-5.9-8.2-9.3-1.3-2-2.5-4.2-3.4-6.2-1.7-4.1-2.5-7.7-2.8-9.2-.6-3.3-.7-6.1-.7-8.4-4.2 8.6-7.3 16.6-9.6 23.9h-154.5c-4.2 0-7.6-3.4-7.6-7.6v-47.5c0-4.2 3.4-7.6 7.6-7.6h196.3z" fill="#71eaa2"/><path d="m39.7 317.4h-19.1c-3.4 0-6.3-2.2-7.3-5.3-.3-.7-.4-1.5-.4-2.3v-47.5c0-4.2 3.4-7.6 7.6-7.6h19.2c-4.2 0-7.6 3.4-7.6 7.6v47.5c0 .8.1 1.6.4 2.3.9 3.1 3.8 5.3 7.2 5.3z" fill="#58dd8e"/><path d="m246.8 262.3v47.5c0 4.2-3.4 7.6-7.6 7.6h-199.5c-3.4 0-6.3-2.2-7.3-5.3-.3-.7-.4-1.5-.4-2.3v-47.5c0-4.2 3.4-7.6 7.6-7.6h199.5c4.3 0 7.7 3.4 7.7 7.6z" fill="#71eaa2"/><path d="m39.7 505.6h-19.1c-4.2 0-7.6-3.4-7.6-7.6v-47.5c0-4.2 3.4-7.6 7.6-7.6h19.2c-4.2 0-7.6 3.4-7.6 7.6v47.5c-.1 4.3 3.3 7.6 7.5 7.6z" fill="#58dd8e"/><path d="m242.3 505c-1 .4-2 .6-3 .6h-199.6c-4.2 0-7.6-3.4-7.6-7.6v-47.5c0-4.2 3.4-7.6 7.6-7.6h147.9c-1 9.3-.4 18.5 4 27.7 8.8 18.2 27.9 31.5 50.7 34.4z" fill="#71eaa2"/><path d="m499.1 119.1c0 27.9-21 50.5-47 50.5h-5.6c23.7 0 42.9-18.4 42.9-40.9 0-22.6-19.2-41-42.9-41-2.2 0-4.3.2-6.5.5.1-.9.2-1.8.2-2.8 0-26.6-22.6-48.2-50.4-48.2-27.3 0-49.4 20.8-50.3 46.6-7.1-8.1-17.8-13.3-29.8-13.3-21.5 0-39 16.6-39 37.2v.4c-1.7-.3-3.5-.4-5.3-.4-17.8 0-32.4 13.9-32.4 31s14.5 31 32.4 31h-11.7c-19.6 0-35.5-17.1-35.5-38.2s15.9-38.2 35.5-38.2c2 0 3.9.2 5.8.5v-.5c0-25.4 19.1-45.9 42.7-45.9 13.1 0 24.9 6.4 32.7 16.4 1-31.9 25.3-57.5 55.2-57.5 30.5 0 55.2 26.6 55.2 59.4 0 1.2-.1 2.3-.2 3.5 2.3-.4 4.7-.6 7.1-.6 25.8-.1 46.9 22.6 46.9 50.5z" fill="#f3eae6"/><path d="m489.3 128.7c0 22.6-19.2 40.9-42.9 40.9h-6.6c1.1-5 1.7-10.3 1.7-15.6 0-40.2-32.6-72.8-72.8-72.8-40.3 0-72.9 32.6-72.9 72.8 0 5.4.6 10.6 1.7 15.6h-32.3c-17.8 0-32.4-13.9-32.4-31s14.5-31 32.4-31c1.8 0 3.6.2 5.3.4v-.4c0-20.6 17.5-37.2 39-37.2 12 0 22.7 5.2 29.8 13.3.9-25.8 23.1-46.6 50.3-46.6 27.8 0 50.4 21.6 50.4 48.2 0 1-.1 1.9-.2 2.8 2.1-.3 4.3-.5 6.5-.5 23.9.1 43 18.4 43 41.1z" fill="#f9f3f1"/><path d="m441.6 154c0 3.6-.3 7.1-.7 10.5-5.1-35.2-35.4-62.4-72.1-62.4s-67.1 27.1-72.1 62.4c-.5-3.4-.7-6.9-.7-10.5 0-40.2 32.6-72.8 72.9-72.8 40.1-.1 72.7 32.6 72.7 72.8z" fill="#58dd8e"/><path d="m440.9 164.5c-5.1 35.3-35.5 62.4-72.1 62.4-36.7 0-67-27.1-72.1-62.4 5.1-35.2 35.5-62.4 72.1-62.4s67 27.1 72.1 62.4z" fill="#71eaa2"/><path d="m35.3 317.4h27.4v31.4h-27.4z" fill="#f3eae6"/><path d="m35.3 411.6h27.4v31.4h-27.4z" fill="#f3eae6"/><path d="m62.7 317.4h161.8v31.4h-161.8z" fill="#f9f3f1"/><path d="m194.3 411.6c-2.1 6.5-3.5 12.4-4.5 17.9-.1.3-.1.5-.2.9-.9 4.2-1.6 8.4-2 12.6h-124.9v-31.4z" fill="#f9f3f1"/><path d="m310.1 422.1c-2-5-4.3-9.8-6.8-14.6-6.5-12.8-14.4-25.2-22.1-37.7.2 1.5.3 3.4.2 5.7-.1 1.7-.3 4.6-1.3 8.1-1.6 5.5-4.6 10.6-8.8 14.9-.3.3-8.1-6.7-9-7.5-2.8-2.8-5.2-5.9-7.2-9.2-4-6.5-6.4-13.8-7.3-21.1-1.5-11.9.9-24.1 5.5-35.4-18.3 20.1-29.9 44.4-33.4 69.9-1.2 8.5-1.5 17.1-.9 25.7-5.2-4.3-9.1-9.7-11.6-15.5-1.7-4-2.5-7.6-2.8-9.2-.6-3.3-.7-6.2-.7-8.5-7.9 16.2-12 30.2-14.1 41.8 0 .3-.1.5-.2.9-2.7 13.8-4.4 27.1 1.9 40.3 10 20.6 33.2 35 60.3 35 28 0 51.4-15.8 60.1-34.4 7.8-16.6 4.7-33.3-1.8-49.2z" fill="#ffc294"/><path d="m219.2 459.7c1.1-2.7 2.4-5.4 3.8-8 3.7-7.1 8.1-13.9 12.4-20.7-.1.8-.2 1.9-.1 3.1 0 .9.2 2.5.7 4.4.9 3 2.6 5.8 4.9 8.2.2.2 4.6-3.7 5-4.1 1.6-1.5 2.9-3.3 4.1-5.1 2.2-3.6 3.6-7.6 4.1-11.6.8-6.6-.5-13.2-3.1-19.5 10.2 11.1 16.8 24.5 18.7 38.5.7 4.7.8 9.4.5 14.1 2.9-2.4 5.1-5.3 6.5-8.6 1-2.2 1.4-4.2 1.6-5.1.3-1.8.4-3.4.4-4.7 4.4 8.9 6.7 16.6 7.9 23 0 .1 0 .3.1.5 1.5 7.6 2.4 14.9-1.1 22.2-5.6 11.3-18.6 19.3-33.8 19.3-15.7 0-28.8-8.7-33.7-19-4.2-9-2.5-18.2 1.1-26.9z" fill="#fcad6d"/><g fill="#231f20"><path d="m48.8 397.1c3 0 5.3-2.4 5.3-5.3v-23.1c0-3-2.4-5.3-5.3-5.3-3 0-5.3 2.4-5.3 5.3v23.1c0 2.9 2.4 5.3 5.3 5.3z"/><path d="m72.4 397.1c3 0 5.3-2.4 5.3-5.3v-23.1c0-3-2.4-5.3-5.3-5.3-3 0-5.3 2.4-5.3 5.3v23.1c0 2.9 2.4 5.3 5.3 5.3z"/><path d="m96 397.1c3 0 5.3-2.4 5.3-5.3v-23.1c0-3-2.4-5.3-5.3-5.3s-5.3 2.4-5.3 5.3v23.1c0 2.9 2.3 5.3 5.3 5.3z"/><path d="m20.6 322.8h9.4v20.7h-9.4c-7.2 0-13 5.8-13 12.9v47.5c0 7.2 5.8 13 13 13h9.4v20.7h-9.4c-7.2 0-13 5.8-13 12.9v47.5c0 7.1 5.8 12.9 13 12.9h28.2c3 0 5.3-2.4 5.3-5.3s-2.4-5.3-5.3-5.3h-28.2c-1.3 0-2.3-1-2.3-2.3v-47.5c0-1.2 1-2.3 2.3-2.3h161.4v.4c0 1.9 0 3.8.1 5.8 1.3 18.5 12.6 34.4 27.9 44.3.8.5 1.6 1 2.4 1.5h-137.2c-3 0-5.3 2.4-5.3 5.3s2.4 5.3 5.3 5.3h164c1.2 0 2.4-.2 3.5-.5 3 .3 6 .6 9.2.6 27.8 0 54.5-15.4 64.9-37.5 4.9-10.5 5.7-20.7 4.7-30h23.7c3 0 5.3-2.4 5.3-5.3s-2.4-5.3-5.3-5.3h-25.8c-1.2-4.7-2.8-9-4.3-12.7-1.8-4.5-4-9.3-7-15-5.5-10.9-12.1-21.6-18.5-31.9l-3.8-6.2c-1.3-2.1-3.9-3.1-6.3-2.3s-3.8 3.2-3.6 5.7c.2 1.6.2 3.2.2 4.8 0 .9-.2 3.6-1.1 6.8s-2.4 6.2-4.5 9.1c-1.9-1.6-3.9-3.4-4.4-3.9-2.5-2.5-4.6-5.2-6.5-8.2-3.5-5.7-5.7-12.2-6.5-19-1.2-10.2.5-21.2 5.1-32.7 1-2.4.1-5.1-2.1-6.5s-5-1-6.8.9c-6.2 6.8-11.6 14.2-16.3 21.9h-3.2v-20.7h9.4c7.1 0 12.9-5.8 12.9-12.9v-47.5c0-7.1-5.8-12.9-12.9-12.9h-44.9c-3 0-5.3 2.4-5.3 5.3s2.4 5.3 5.3 5.3h44.9c1.3 0 2.3 1 2.3 2.3v47.5c0 1.3-1 2.3-2.3 2.3h-218.6c-1 0-1.9-.6-2.2-1.5 0-.1-.1-.7-.1-.7v-47.5c0-1.2 1-2.3 2.3-2.3h142.7c3 0 5.3-2.4 5.3-5.3s-2.4-5.3-5.3-5.3h-74.4v-32c0-2.9-2.4-5.3-5.3-5.3-3 0-5.3 2.4-5.3 5.3v32h-57.7c-7.2 0-13 5.8-13 12.9v47.5c0 1.4.2 2.8.6 3.9 1.7 5.1 6.7 8.8 12.4 8.8zm-2.3 81.1v-47.5c0-1.2 1.1-2.3 2.3-2.3h206.5c-.1.2-.2.4-.2.5-7.3 14.9-11.7 31.1-13 47.7-.1 1.1-.3 2.2-.3 3.3-.4-.8-.8-1.6-1.2-2.5-2.2-4.8-3.2-10.2-3-15.4.1-2.9-2.3-5.4-5.2-5.5-3.6-.1-5 2.9-6.3 5.7-2 4.2-3.4 8.6-5.3 12.7-.7 1.8-1.5 3.7-2.1 5.5h-169.9c-1.3.1-2.3-.9-2.3-2.2zm22.3 33.7v-20.7h146.5c0 .1-.1.3-.1.4-1.7 6.3-2.9 12.7-3.9 19.1-.1.4-.1.8-.2 1.2zm227.2 26.1c1.9 1 4.2.7 5.8-.6 2.2-1.8 4.2-4 5.8-6.4.8 2.7 1.5 5.4 2 8.1 0 .1.1.5.1.5 1.6 7.8 2 13.4-.6 18.8-4.9 9.9-16.3 16.3-29 16.3-14.6 0-25.2-8.3-28.8-15.9-3.1-6.4-2.7-13.4 1.1-22.7.9-2.2 2.1-4.7 3.6-7.6 1.6-3.1 3.4-6.2 5.2-9.2 1.1 2 2.5 3.8 4.2 5.5 1 1 2.4 1.6 3.8 1.6 1.2 0 3.1 0 8.8-5.7 1.8-1.8 3.5-3.8 4.8-6.1 2.3-3.7 3.9-8 4.6-12.4 2.6 5.7 4.4 11.6 5.3 17.8.6 4.3.8 8.7.4 13-.1 2 1.1 4 2.9 5zm-25.3-102.5c1 8.3 3.8 16.3 8 23.2 2.3 3.7 5 7.2 8 10.2 9.1 9.1 11.8 9.1 12.8 9.1 1.4 0 2.8-.6 3.8-1.6 4.6-4.7 7.9-10.3 9.8-16.1 4.8 7.9 9.5 15.9 13.6 23.9 2.8 5.5 4.9 10 6.6 14.2 7.4 18.2 8 32 1.9 44.9-3.1 6.6-8.7 13.4-16.3 18.9 3.9-8.7 2.7-17.3 1.1-25.2-1.4-8-4.3-16.2-8.4-24.4-1.1-2.2-3.6-3.4-6.1-2.8-1.5.4-2.7 1.4-3.4 2.7-2.9-13-9.4-25.2-19-35.5-1.8-1.9-4.6-2.3-6.8-.9s-3 4.1-2.1 6.5c2.4 6 3.4 11.6 2.7 16.8-.4 3.4-1.6 6.6-3.3 9.5-.9 1.5-2 2.9-3.2 4.1-.1.1-.2.2-.3.3-.3-.7-.6-1.4-.8-2.1-.4-1.5-.5-2.8-.5-3.2 0-.9 0-1.6.1-2.2.3-2.5-1.2-4.8-3.5-5.7-2.4-.8-5 .1-6.3 2.2l-2.1 3.4c-3.6 5.7-7.3 11.6-10.5 17.7-1.7 3.2-2.9 5.9-4 8.5-3.1 7.4-6.4 18.4-1.4 30.1-.9-.7-1.8-1.3-2.7-2.1-.8-.7-1.6-1.4-2.3-2.1-5.4-5-10.2-11.3-12.8-18.3-2.1-5.7-2.5-11.8-2.3-17.9.5-11.4 3-23.3 6.6-34.2.7-2.4 1.6-4.8 2.5-7.3.1.1.1.3.2.4.1.4.3.7.5 1.2 2.4 5.4 5.9 10.4 9.8 14.7 1.8 1.9 4.2 4.1 6.9 3.9.7 0 1.4-.2 2.1-.5 3.6-1.9 2.8-6.3 2.7-9.7-.8-22.4 5.1-44.7 16.3-64.1.6-1 1.1-2 1.8-3-.3 4.3-.2 8.5.3 12.5zm-201.9-17.7v-20.7h178.5v20.7z"/><path d="m43.5 274.5v23.1c0 3 2.4 5.3 5.3 5.3 3 0 5.3-2.4 5.3-5.3v-23.1c0-3-2.4-5.3-5.3-5.3s-5.3 2.4-5.3 5.3z"/><path d="m67.1 274.5v23.1c0 3 2.4 5.3 5.3 5.3 3 0 5.3-2.4 5.3-5.3v-23.1c0-3-2.4-5.3-5.3-5.3s-5.3 2.4-5.3 5.3z"/><path d="m90.7 274.5v23.1c0 3 2.4 5.3 5.3 5.3s5.3-2.4 5.3-5.3v-23.1c0-3-2.4-5.3-5.3-5.3s-5.3 2.4-5.3 5.3z"/><path d="m43.5 462.8v23.1c0 3 2.4 5.3 5.3 5.3 3 0 5.3-2.4 5.3-5.3v-23.1c0-3-2.4-5.3-5.3-5.3-2.9-.1-5.3 2.3-5.3 5.3z"/><path d="m77.7 485.8v-23.1c0-3-2.4-5.3-5.3-5.3-3 0-5.3 2.4-5.3 5.3v23.1c0 3 2.4 5.3 5.3 5.3 3 .1 5.3-2.3 5.3-5.3z"/><path d="m101.3 485.8v-23.1c0-3-2.4-5.3-5.3-5.3s-5.3 2.4-5.3 5.3v23.1c0 3 2.4 5.3 5.3 5.3s5.3-2.3 5.3-5.3z"/><path d="m452.1 63.2c-.5 0-1.1 0-1.6 0-.5-13.8-5-26.8-13-37.7-1.8-2.4-5.1-2.9-7.5-1.1s-2.9 5.1-1.1 7.5c7.2 9.7 11 21.4 11 33.8 0 .7 0 1.3-.1 2l-.1 1.3c-.1 1.6.6 3.2 1.8 4.2 1.2 1.1 2.8 1.5 4.4 1.3 2.5-.4 4.4-.6 6.3-.6 23 0 41.6 20.3 41.6 45.2s-18.7 45.2-41.6 45.2h-5.8c0-.4.1-.7.1-1.1.1-.9.2-1.7.3-2.6.2-1.8.2-3.6.3-5.4 0-.4.1-.8.1-1.2 0-43.1-35.1-78.2-78.2-78.2-28.6 0-53.6 15.5-67.2 38.4-8.6 14.5-12.3 31.5-10.5 48.2.1.6.1 1.2.2 1.8h-37.7c-16.6 0-30.2-14.7-30.2-32.8 0-2.9-2.4-5.3-5.3-5.3s-5.3 2.4-5.3 5.3c0 24 18.3 43.5 40.8 43.5h39.9c2.7 9.9 7.4 19.1 13.9 27.4 1.8 2.3 5.2 2.7 7.5.9s2.7-5.2.9-7.5c-16.4-20.8-19-50.4-6.4-73.8 0 0 0-.1.1-.1.2-.3.3-.5.5-.8 11.6-20.6 33.6-34.5 58.9-34.5 37.2 0 67.5 30.3 67.5 67.5 0 4.9-.5 9.8-1.6 14.4-6.6 30.3-33.7 53.1-65.9 53.1-14.6 0-28.4-4.6-40.1-13.2-2.4-1.8-5.7-1.3-7.5 1.1s-1.3 5.7 1.1 7.5c12.1 8.9 26.2 14.1 41.1 15.1v32.2c0 3 2.4 5.3 5.3 5.3s5.3-2.4 5.3-5.3v-32.3c33.5-2.3 61.2-25.7 69.9-57h8c28.9 0 52.3-25.1 52.3-55.8-.1-30.8-23.6-55.9-52.4-55.9z"/><path d="m375.6 102.6c-2.2-.3-4.5-.4-6.8-.4-26.3 0-47.9 19.5-50.8 45.5l-3.6-4.2c-1.9-2.2-5.3-2.5-7.5-.5-2.2 1.9-2.5 5.3-.5 7.5l12.4 14.3c1 1.1 2.4 1.8 3.9 1.8h.2c1.4 0 2.8-.6 3.8-1.6l12.8-13c2.1-2.1 2.1-5.5 0-7.5-2.1-2.1-5.5-2.1-7.6 0l-3.1 3.1c2.7-19.7 19.9-34.9 40-34.9 1.8 0 3.6.1 5.4.4 2.9.4 5.6-1.7 6-4.6s-1.7-5.5-4.6-5.9z"/><path d="m368.8 193.7c-.6 0-1.2 0-1.8 0-2.8 0-5.4 2.2-5.6 5.1-.1 2.9 2.2 5.4 5.1 5.6h2.3c28 0 50.8-22.6 51.1-50.6l2.7 3c1.1 1.2 2.5 1.8 4 1.8 1.3 0 2.5-.4 3.5-1.3 2.2-2 2.4-5.3.4-7.5l-12.1-13.6c-1-1.1-2.4-1.8-3.9-1.8-1.6.1-2.9.6-4 1.6l-13.2 13.6c-2 2.1-2 5.5.1 7.5 2.1 2.1 5.5 2 7.5-.1l4.3-4.5c0 .3-.2.5-.2.8.3 22.2-17.9 40.4-40.2 40.4zm45.5-46.2.4.5h-.1c-.3 0-.6.1-.9.2z"/><path d="m83.6 201.3c3 0 5.3-2.4 5.3-5.3v-37.4c0-2.9-2.4-5.3-5.3-5.3-3 0-5.3 2.4-5.3 5.3v37.4c-.1 2.9 2.3 5.3 5.3 5.3z"/><path d="m83.6 83.9c3 0 5.3-2.4 5.3-5.3v-8h18.7c3 0 5.3-2.4 5.3-5.3s-2.4-5.3-5.3-5.3h-24c-3 0-5.3 2.4-5.3 5.3v13.3c-.1 2.9 2.3 5.3 5.3 5.3z"/><path d="m83.6 142.6c3 0 5.3-2.4 5.3-5.3v-37.4c0-2.9-2.4-5.3-5.3-5.3-3 0-5.3 2.4-5.3 5.3v37.4c-.1 2.9 2.3 5.3 5.3 5.3z"/><path d="m246.4 70.5h12.6c-2.5 5.3-4.2 11.2-4.8 17.4-14.6-.3-28 7.6-35.6 20.9-1.5 2.6-.6 5.8 2 7.3.8.5 1.7.7 2.6.7 1.9 0 3.7-1 4.6-2.7 5.6-9.7 15.1-15.5 25.6-15.5 1.5 0 3.1.1 4.9.5 1.5.3 3.1-.2 4.3-1.2s1.9-2.5 1.9-4.1v-.5c0-22.3 16.8-40.5 37.4-40.5 11 0 21.4 5.2 28.5 14.4 1.4 1.8 3.7 2.5 5.9 1.8 2.1-.7 3.6-2.7 3.7-4.9.9-29.3 22.8-52.3 49.8-52.3 8.4 0 16.7 2.3 24 6.7 2.5 1.5 5.8.7 7.3-1.9 1.5-2.5.7-5.8-1.9-7.3-9-5.3-19.1-8.2-29.5-8.2-29.2 0-53.4 21.7-59.2 51.2-8.2-6.5-18.2-10.1-28.7-10.1-14.5 0-27.5 6.9-36.3 17.8h-19.3c-3 0-5.3 2.4-5.3 5.3s2.6 5.2 5.5 5.2z"/><path d="m187.7 70.5h37.4c3 0 5.3-2.4 5.3-5.3s-2.4-5.3-5.3-5.3h-37.4c-3 0-5.3 2.4-5.3 5.3s2.3 5.3 5.3 5.3z"/><path d="m129 70.5h37.4c3 0 5.3-2.4 5.3-5.3s-2.4-5.3-5.3-5.3h-37.4c-3 0-5.3 2.4-5.3 5.3s2.3 5.3 5.3 5.3z"/><path d="m363.4 381.7c0 3 2.4 5.3 5.3 5.3s5.3-2.4 5.3-5.3v-37.4c0-3-2.4-5.3-5.3-5.3s-5.3 2.4-5.3 5.3z"/><path d="m368.8 328.3c3 0 5.3-2.4 5.3-5.3v-37.4c0-3-2.4-5.3-5.3-5.3s-5.3 2.4-5.3 5.3v37.4c-.1 2.9 2.3 5.3 5.3 5.3z"/><path d="m363.4 433.7c-1.4 1-2.3 2.6-2.3 4.4 0 3 2.4 5.3 5.3 5.3h2.3c3 0 5.3-2.4 5.3-5.3v-35.1c0-3-2.4-5.3-5.3-5.3s-5.3 2.4-5.3 5.3z"/></g></g></svg>