<?xml version="1.0" encoding="iso-8859-1"?>
<!-- Generator: Adobe Illustrator 19.0.0, SVG Export Plug-In . SVG Version: 6.00 Build 0)  -->
<svg version="1.1" id="Capa_1" xmlns="http://www.w3.org/2000/svg" xmlns:xlink="http://www.w3.org/1999/xlink" x="0px" y="0px"
	 viewBox="0 0 480 480" style="enable-background:new 0 0 480 480;" xml:space="preserve">
<path style="fill:#666666;" d="M384.001,312v24c0,35.346-28.654,64-64,64h-72v-32h72c17.673,0,32-14.327,32-32v-24H384.001z"/>
<g>
	<rect x="24.001" y="56" style="fill:#B3B3B3;" width="192" height="72"/>
	<rect x="24.001" y="160" style="fill:#B3B3B3;" width="192" height="72"/>
	<rect x="24.001" y="264" style="fill:#B3B3B3;" width="192" height="72"/>
	<path style="fill:#B3B3B3;" d="M336.001,280h64l0,0v32c0,8.837-7.163,16-16,16h-32c-8.837,0-16-7.163-16-16V280L336.001,280z"/>
	<path style="fill:#B3B3B3;" d="M216.001,416v-64l0,0h32c8.837,0,16,7.163,16,16v32c0,8.837-7.163,16-16,16H216.001L216.001,416z"/>
</g>
<g>
	<rect x="8.001" y="8" style="fill:#666666;" width="224" height="64"/>
	<rect x="8.001" y="112" style="fill:#666666;" width="224" height="64"/>
	<rect x="8.001" y="216" style="fill:#666666;" width="224" height="64"/>
	<rect x="8.001" y="320" style="fill:#666666;" width="224" height="120"/>
</g>
<g>
	<polygon style="fill:#B3B3B3;" points="56.001,472 24.001,472 24.001,440 72.001,440 	"/>
	<polygon style="fill:#B3B3B3;" points="184.001,472 216.001,472 216.001,440 168.001,440 	"/>
</g>
<rect x="152.001" y="352" style="fill:#FBB03B;" width="48" height="56"/>
<polygon style="fill:#666666;" points="472.001,296 264.001,296 280.001,200 456.001,200 "/>
<rect x="280.001" y="72" style="fill:#29ABE2;" width="176" height="128"/>
<path style="fill:#F7931E;" d="M152.001,394.624V408h48v-42.168C185.794,378.144,169.552,387.886,152.001,394.624z"/>
<rect x="296.001" y="224" width="16" height="16"/>
<rect x="296.001" y="256" width="16" height="16"/>
<rect x="328.001" y="256" width="80" height="16"/>
<rect x="424.001" y="256" width="16" height="16"/>
<rect x="328.001" y="224" width="16" height="16"/>
<rect x="360.001" y="224" width="16" height="16"/>
<rect x="392.001" y="224" width="16" height="16"/>
<rect x="424.001" y="224" width="16" height="16"/>
<path d="M304.001,112.144V136h16l0.144-24h31.856V96h-31.856C311.233,96.009,304.01,103.232,304.001,112.144z"/>
<rect x="368.001" y="96" width="16" height="16"/>
<rect x="32.001" y="32" width="16" height="16"/>
<rect x="64.001" y="32" width="16" height="16"/>
<rect x="32.001" y="136" width="16" height="16"/>
<rect x="64.001" y="136" width="16" height="16"/>
<rect x="32.001" y="240" width="16" height="16"/>
<rect x="64.001" y="240" width="16" height="16"/>
<path d="M8.001,448h8v24c0,4.418,3.582,8,8,8h32c3.032,0.001,5.805-1.712,7.16-4.424L76.945,448h86.112l13.784,27.576
	c1.355,2.712,4.128,4.425,7.16,4.424h32c4.418,0,8-3.582,8-8v-24h8c4.418,0,8-3.582,8-8v-16h8c10.134-0.042,19.15-6.445,22.528-16
	h49.472c39.746-0.044,71.956-32.254,72-72v-1.472c9.555-3.378,15.958-12.394,16-22.528v-8h64c4.418-0.001,7.999-3.584,7.998-8.002
	c0-0.441-0.037-0.882-0.11-1.318l-15.888-95.344V72c0-4.418-3.582-8-8-8h-176c-4.418,0-8,3.582-8,8v127.336l-15.888,95.344
	c-0.729,4.358,2.213,8.481,6.57,9.21c0.435,0.073,0.876,0.11,1.318,0.11h64v8c0.042,10.134,6.445,19.15,16,22.528V336
	c0,13.255-10.745,24-24,24h-49.472c-3.378-9.555-12.394-15.958-22.528-16h-8v-24c0-4.418-3.582-8-8-8h-8v-24h8c4.418,0,8-3.582,8-8
	v-64c0-4.418-3.582-8-8-8h-8v-24h8c4.418,0,8-3.582,8-8v-64c0-4.418-3.582-8-8-8h-8V80h8c4.418,0,8-3.582,8-8V8c0-4.418-3.582-8-8-8
	h-224c-4.418,0-8,3.582-8,8v64c0,4.418,3.582,8,8,8h8v24h-8c-4.418,0-8,3.582-8,8v64c0,4.418,3.582,8,8,8h8v24h-8
	c-4.418,0-8,3.582-8,8v64c0,4.418,3.582,8,8,8h8v24h-8c-4.418,0-8,3.582-8,8v120C0.001,444.418,3.583,448,8.001,448z M51.057,464
	H32.001v-16h27.056L51.057,464z M208.001,464h-19.056l-8-16h27.056V464z M288.001,80h160v112h-160V80z M286.777,208h162.448
	l13.328,80H273.449L286.777,208z M392.001,304v8c0,4.418-3.582,8-8,8h-32c-4.418,0-8-3.582-8-8v-8H392.001z M360.001,336h16
	c-0.035,30.913-25.087,55.965-56,56h-48v-16h48C342.082,375.974,359.975,358.08,360.001,336z M248.001,360c4.418,0,8,3.582,8,8v32
	c0,4.418-3.582,8-8,8h-8v-48H248.001z M16.001,16h208v48h-208V16z M32.001,80h176v24h-176V80z M16.001,120h208v48h-208V120z
	 M32.001,184h176v24h-176V184z M16.001,224h208v48h-208V224z M32.001,288h176v24h-176V288z M16.001,328h208v104h-208V328z"/>
<rect x="32.001" y="344" width="16" height="16"/>
<rect x="64.001" y="344" width="32" height="16"/>
<rect x="64.001" y="376" width="48" height="16"/>
<rect x="32.001" y="376" width="16" height="16"/>
<path d="M152.001,416h48c4.418,0,8-3.582,8-8v-56c0-4.418-3.582-8-8-8h-48c-4.418,0-8,3.582-8,8v56
	C144.001,412.418,147.583,416,152.001,416z M160.001,360h32v40h-32V360z"/>
<g>
</g>
<g>
</g>
<g>
</g>
<g>
</g>
<g>
</g>
<g>
</g>
<g>
</g>
<g>
</g>
<g>
</g>
<g>
</g>
<g>
</g>
<g>
</g>
<g>
</g>
<g>
</g>
<g>
</g>
</svg>
