<svg id="icons" height="512" viewBox="0 0 60 60" width="512" xmlns="http://www.w3.org/2000/svg"><path d="m20.236 23.189a.5.5 0 0 1 -.28-.914l9.024-6.1-9.7 5.6a.5.5 0 0 1 -.527-.848l7.9-5.27-7.373 4.255a.5.5 0 0 1 -.521-.852l3.183-2.06-2.662 1.535a.5.5 0 0 1 -.532-.845l7.446-5.1-6.914 3.987a.5.5 0 0 1 -.526-.849l3.628-2.41-3.1 1.791a.5.5 0 0 1 -.529-.847l3.682-2.477-3.155 1.815a.5.5 0 0 1 -.528-.847l2.4-1.611-1.87 1.08a.5.5 0 0 1 -.542-.839l5.009-3.6-4.469 2.586a.5.5 0 0 1 -.528-.848l.382-.256a.5.5 0 0 1 -.378-.9l7.461-5.176a.5.5 0 0 1 .232-.565l3.48-2.012a.5.5 0 0 1 .535.844l-1.247.865 1.844-1.064a.5.5 0 0 1 .528.847l-.036.025.424-.244a.5.5 0 0 1 .669.161.5.5 0 0 1 -.127.678l-5.009 3.6 5.936-3.426a.5.5 0 0 1 .529.847l-2.408 1.611 2.972-1.714a.5.5 0 0 1 .529.847l-3.676 2.474 4.338-2.5a.5.5 0 0 1 .527.85l-3.629 2.404 4.265-2.462a.5.5 0 0 1 .532.845l-7.443 5.1 8.46-4.885a.5.5 0 0 1 .522.853l-3.194 2.07 3.763-2.173a.5.5 0 0 1 .528.849l-7.9 5.27 8.539-4.927a.5.5 0 0 1 .531.847l-9.031 6.096 8.516-4.916a.5.5 0 0 1 .526.849l-4.732 3.144 4.206-2.428a.5.5 0 0 1 .53.846l-3.866 2.625 3.34-1.927a.5.5 0 0 1 .542.838l-4.169 3 3.627-2.094a.5.5 0 0 1 .54.84l-1.46 1.033.916-.529a.5.5 0 0 1 .546.836l-.5.371a.5.5 0 0 1 .612.158.5.5 0 0 1 -.065.664l-1.59 1.458 1-.578a.5.5 0 0 1 .636.75l-.605.738a.5.5 0 0 1 .469.882l-2.344 1.353a.5.5 0 0 1 -.637-.75l.6-.735-2.575 1.486a.5.5 0 0 1 -.588-.8l1.59-1.458-3.916 2.261a.5.5 0 0 1 -.546-.836l.489-.358-2.071 1.2a.5.5 0 0 1 -.54-.84l1.455-1.036-3.252 1.877a.5.5 0 0 1 -.542-.839l4.175-3-6.652 3.84a.5.5 0 0 1 -.53-.847l3.86-2.616-6 3.465a.5.5 0 0 1 -.526-.849l4.735-3.146-6.921 4a.494.494 0 0 1 -.247.057z" fill="#e1efff"/><path d="m12.533 59.465a.5.5 0 0 1 -.28-.914l.979-.664-2.5 1.446a.5.5 0 0 1 -.532-.846l3.249-2.21-4.982 2.874a.5.5 0 0 1 -.539-.84l7.888-5.581-10.323 5.96a.5.5 0 0 1 -.523-.85l4.841-3.17-6.132 3.539a.5.5 0 0 1 -.533-.846l10.693-7.308-12.23 7.059a.5.5 0 0 1 -.518-.854l4.374-2.787-4.185 2.415a.5.5 0 0 1 -.528-.848l11.576-7.764-11.048 6.378a.5.5 0 0 1 -.522-.854l7.785-5.05-7.263 4.194a.5.5 0 0 1 -.521-.852l7.588-4.916-7.067 4.079a.5.5 0 0 1 -.522-.855l8.285-5.394-7.763 4.484a.5.5 0 0 1 -.526-.849l10.31-6.826-9.784 5.649a.5.5 0 0 1 -.53-.847l9.034-6.1-8.5 4.91a.5.5 0 0 1 -.519-.854l.5-.322a.5.5 0 0 1 -.513-.857l4.054-2.731-3.526 2.029a.5.5 0 0 1 -.527-.848l.766-.509-.239.137a.5.5 0 0 1 -.55-.833l3.992-2.987-3.442 1.987a.5.5 0 0 1 -.542-.839l.549-.4h-.007a.5.5 0 0 1 -.593-.8l2.135-2-1.542.889a.5.5 0 0 1 -.634-.752l.731-.882-.1.055a.5.5 0 0 1 -.568-.047.5.5 0 0 1 -.154-.549l.2-.576a.487.487 0 0 1 -.155-.17.5.5 0 0 1 .182-.682l.5-.289a.5.5 0 0 1 .718.595l-.063.181 1.35-.779a.5.5 0 0 1 .635.752l-.733.883 2.838-1.638a.5.5 0 0 1 .593.8l-2.133 2.009 4.878-2.815a.5.5 0 0 1 .542.838l-.543.392 2.136-1.231a.5.5 0 0 1 .55.833l-3.991 2.983 6.623-3.823a.5.5 0 0 1 .527.849l-.77.511 2.361-1.36a.5.5 0 0 1 .529.848l-4.056 2.731 6.206-3.582a.5.5 0 0 1 .52.854l-.48.308 2.017-1.165a.5.5 0 0 1 .53.847l-9.04 6.109 11.692-6.75a.5.5 0 0 1 .526.85l-10.3 6.821 9.776-5.648a.5.5 0 0 1 .522.851l-8.285 5.395 7.763-4.482a.5.5 0 0 1 .521.853l-7.6 4.923 7.076-4.085a.5.5 0 0 1 .522.852l-7.775 5.044 7.253-4.187a.5.5 0 0 1 .528.847l-11.579 7.771 11.054-6.382a.5.5 0 0 1 .518.855l-4.38 2.791 3.862-2.229a.5.5 0 0 1 .532.846l-10.69 7.307 10.158-5.863a.5.5 0 0 1 .523.851l-4.843 3.172 4.321-2.493a.5.5 0 0 1 .539.84l-7.885 5.577 7.346-4.241a.5.5 0 0 1 .531.846l-3.257 2.215 2.725-1.574a.5.5 0 0 1 .53.846l-.977.662.448-.257a.5.5 0 0 1 .563.822l-3.762 3.032 3.2-1.847a.5.5 0 0 1 .58.809l-1.521 1.333.94-.542a.5.5 0 0 1 .5.865l-5.321 3.077a.5.5 0 0 1 -.58-.808l1.52-1.334-4.4 2.541a.5.5 0 0 1 -.563-.822l3.763-3.033-6.857 3.956a.5.5 0 0 1 -.25.065z" fill="#2d629b"/><path d="m14.033 35.458a.5.5 0 0 1 -.323-.882l2.022-1.714-4.334 2.5a.5.5 0 0 1 -.559-.825l1.654-1.3-3.43 1.98a.5.5 0 0 1 -.585-.8l2.822-2.559-5.135 2.963a.5.5 0 0 1 -.6-.794l2.574-2.46-4.534 2.619a.5.5 0 0 1 -.561-.825l.465-.369-1.15.663a.5.5 0 0 1 -.694-.663l.814-1.569-1.1.636a.5.5 0 0 1 -.5-.866l2.582-1.493a.5.5 0 0 1 .6.071.5.5 0 0 1 .1.592l-.814 1.57 5.492-3.171a.5.5 0 0 1 .562.824l-.468.372 2.314-1.336a.5.5 0 0 1 .6.794l-2.572 2.46 5.6-3.233a.5.5 0 0 1 .586.8l-2.831 2.557 5.37-3.1a.5.5 0 0 1 .56.826l-1.654 1.3 3.136-1.81a.5.5 0 0 1 .573.814l-2.024 1.716 3.509-2.023a.5.5 0 0 1 .58.808l-1.472 1.29 2.5-1.44a.5.5 0 0 1 .58.808l-.324.285.613-.354a.5.5 0 1 1 .5.865l-4.991 2.882a.5.5 0 0 1 -.58-.808l.324-.285-2.513 1.451a.5.5 0 0 1 -.58-.809l1.474-1.292-3.928 2.267a.491.491 0 0 1 -.25.067z" fill="#3778c6"/><path d="m12.889 51.469a.5.5 0 0 1 -.287-.909l2.853-2.005-4.8 2.774a.5.5 0 0 1 -.542-.839l6.424-4.616-8.956 5.17a.5.5 0 0 1 -.533-.845l1.05-.72-2.232 1.285a.5.5 0 0 1 -.556-.827l3.69-2.869-5.4 3.117a.5.5 0 0 1 -.537-.843l.138-.1-.774.447a.5.5 0 0 1 -.569-.817l3.075-2.546-3.656 2.11a.5.5 0 0 1 -.572-.814l2.019-1.7-1.448.835a.5.5 0 0 1 -.625-.757l1.654-1.92-1.025.591a.5.5 0 0 1 -.68-.694l.62-1.02a.5.5 0 0 1 -.456-.035.5.5 0 0 1 -.237-.455l.093-1.6a.362.362 0 0 1 -.02-.038.5.5 0 0 1 .183-.683l.117-.067a.5.5 0 0 1 .749.463l-.066 1.058.83-.479a.5.5 0 0 1 .677.692l-.615 1.012 1.879-1.085a.5.5 0 0 1 .629.759l-1.653 1.92 3.77-2.177a.5.5 0 0 1 .572.815l-2.017 1.7 3.927-2.267a.5.5 0 0 1 .568.818l-3.073 2.547 5.645-3.255a.5.5 0 0 1 .536.842l-.144.1 1.712-.988a.5.5 0 0 1 .557.827l-3.693 2.866 7.01-4.047a.5.5 0 0 1 .534.845l-1.049.72 6.54-3.776a.5.5 0 0 1 .542.839l-6.421 4.615 5.879-3.394a.5.5 0 0 1 .537.842l-2.862 2.009 2.323-1.339a.5.5 0 0 1 .54.839l-1.218.869.678-.391a.5.5 0 0 1 .6.787l-2.433 2.418 1.832-1.057a.5.5 0 0 1 .5.866l-5.16 2.978a.5.5 0 0 1 -.6-.787l2.433-2.417-6.377 3.681a.5.5 0 0 1 -.54-.84l1.218-.869-3.057 1.762a.5.5 0 0 1 -.25.069z" fill="#3778c6"/><path d="m48.679 59.438a.5.5 0 0 1 -.306-.9l4.371-3.373-7.271 4.2a.5.5 0 0 1 -.537-.842l4.364-3.054-6.45 3.723a.5.5 0 0 1 -.526-.849l2.566-1.7-3.984 2.3a.5.5 0 0 1 -.526-.849l4.8-3.18-6.3 3.634a.5.5 0 0 1 -.523-.852l4.682-3.049-5.857 3.382a.5.5 0 0 1 -.531-.846l10.349-6.991-11.579 6.686a.5.5 0 0 1 -.522-.853l6.829-4.407-6.448 3.723a.5.5 0 0 1 -.527-.849l11.039-7.361-10.512 6.069a.5.5 0 0 1 -.517-.855l3.089-1.954-2.572 1.484a.5.5 0 0 1 -.526-.85l10.39-6.882-9.864 5.694a.5.5 0 0 1 -.524-.851l9.093-5.956-8.569 4.947a.5.5 0 0 1 -.521-.853l7.279-4.707-6.758 3.9a.5.5 0 0 1 -.524-.85l6.554-4.3-6.03 3.48a.5.5 0 0 1 -.52-.853l1.524-.98-1 .579a.5.5 0 0 1 -.534-.844l5.627-3.883-5.093 2.94a.5.5 0 0 1 -.527-.848l.674-.448-.147.084a.5.5 0 0 1 -.551-.832l4.007-3.019-3.46 1.994a.5.5 0 0 1 -.563-.822l2.534-2.044-1.971 1.138a.5.5 0 0 1 -.636-.75l1.827-2.228-1.191.688a.5.5 0 0 1 -.735-.551l.289-1.19a.489.489 0 0 1 -.236-.21.5.5 0 0 1 .182-.682l.5-.289a.5.5 0 0 1 .736.55l-.224.921 2.557-1.475a.5.5 0 0 1 .636.75l-1.827 2.226 5.164-2.981a.5.5 0 0 1 .564.822l-2.534 2.044 4.971-2.87a.5.5 0 0 1 .551.832l-4.007 3.019 6.677-3.855a.5.5 0 0 1 .527.849l-.667.443 2.244-1.295a.5.5 0 0 1 .535.844l-5.631 3.886 8.2-4.734a.5.5 0 0 1 .52.854l-1.531.985 3.189-1.841a.5.5 0 0 1 .524.851l-6.547 4.3 8.814-5.088a.5.5 0 0 1 .521.852l-7.29 4.714 6.768-3.91a.5.5 0 0 1 .524.851l-9.093 5.959 8.569-4.95a.5.5 0 0 1 .526.85l-10.383 6.878 9.857-5.69a.5.5 0 0 1 .517.855l-3.089 1.957 2.572-1.484a.5.5 0 0 1 .527.848l-11.039 7.359 10.512-6.07a.5.5 0 0 1 .521.853l-6.826 4.406 6.305-3.641a.5.5 0 0 1 .53.847l-10.35 7 9.82-5.669a.5.5 0 0 1 .522.852l-4.671 3.039 4.149-2.4a.5.5 0 0 1 .526.85l-4.809 3.187 4.283-2.472a.5.5 0 0 1 .525.849l-2.556 1.69 2.031-1.172a.5.5 0 0 1 .537.842l-4.364 3.055 3.827-2.209a.5.5 0 0 1 .555.829l-4.375 3.38 3.821-2.206a.5.5 0 0 1 .55.833l-1.086.816.536-.309a.5.5 0 0 1 .6.787l-1.141 1.139.541-.311a.5.5 0 0 1 .5.865l-3.856 2.225a.5.5 0 0 1 -.6-.787l1.143-1.138-4.371 2.517a.5.5 0 0 1 -.551-.832l1.086-.816-3.143 1.818a.493.493 0 0 1 -.25.068z" fill="#2d629b"/><path d="m45.77 35.453a.5.5 0 0 1 -.344-.863l2.906-2.747-5.753 3.321a.5.5 0 0 1 -.56-.825l1.751-1.384-3.323 1.917a.5.5 0 0 1 -.6-.792l2.663-2.58-4.739 2.735a.5.5 0 0 1 -.592-.8l1.7-1.6-2.822 1.629a.5.5 0 0 1 -.668-.707l.752-1.145-.758.438a.5.5 0 0 1 -.5-.866l2.578-1.484a.5.5 0 0 1 .668.707l-.752 1.145 4.708-2.718a.5.5 0 0 1 .593.8l-1.7 1.6 4.531-2.615a.5.5 0 0 1 .6.792l-2.659 2.573 5.75-3.321a.5.5 0 0 1 .561.825l-1.747 1.381 3.5-2.022a.5.5 0 0 1 .594.8l-2.899 2.743 5.325-3.075a.5.5 0 0 1 .566.822l-1.511 1.225 2.725-1.573a.5.5 0 0 1 .63.758l-1.844 2.153 3.235-1.867a.5.5 0 0 1 .625.764l-.279.316a.5.5 0 0 1 .438.9l-2.579 1.487a.5.5 0 0 1 -.625-.764l.271-.306-3.111 1.8a.5.5 0 0 1 -.63-.757l1.842-2.152-5.659 3.267a.5.5 0 0 1 -.566-.821l1.51-1.225-3.552 2.044a.494.494 0 0 1 -.25.067z" fill="#3778c6"/><path d="m47.742 51.462a.5.5 0 0 1 -.3-.9l4.58-3.437-7.291 4.209a.5.5 0 0 1 -.528-.849l1.809-1.208-3.294 1.9a.5.5 0 0 1 -.541-.839l3.32-2.382-5.049 2.914a.5.5 0 0 1 -.554-.829l3.774-2.906-5.557 3.208a.5.5 0 0 1 -.563-.823l3.519-2.834-4.925 2.843a.5.5 0 0 1 -.561-.824l2.463-1.952-2.764 1.6a.5.5 0 0 1 -.567-.82l1.678-1.378-1.111.641a.5.5 0 0 1 -.653-.137.5.5 0 0 1 .065-.665l1-.912-.41.236a.5.5 0 0 1 -.6-.786l.368-.368a.515.515 0 0 1 -.363-.141.5.5 0 0 1 -.091-.6l.451-.834a.614.614 0 0 1 -.277-.076.5.5 0 0 1 -.234-.46l.087-1.191-.021-.034a.5.5 0 0 1 .183-.683l.116-.067a.5.5 0 0 1 .515.01.5.5 0 0 1 .234.46l-.047.636.421-.243a.5.5 0 0 1 .689.671l-.4.732 1.36-.785a.5.5 0 0 1 .6.786l-.2.205 1.092-.631a.5.5 0 0 1 .588.8l-1 .914 2.4-1.387a.5.5 0 0 1 .568.819l-1.68 1.38 3.407-1.967a.5.5 0 0 1 .561.825l-2.46 1.949 4.614-2.664a.5.5 0 0 1 .564.822l-3.52 2.835 6.485-3.745a.5.5 0 0 1 .555.829l-3.778 2.909 7.3-4.211a.5.5 0 0 1 .541.839l-3.314 2.377 7.729-4.462a.5.5 0 0 1 .528.849l-1.812 1.211 1.279-.741a.5.5 0 0 1 .667.157.5.5 0 0 1 -.117.676l-4.581 3.436 4.031-2.326a.5.5 0 0 1 .552.831l-2.062 1.571 1.51-.871a.5.5 0 0 1 .645.739l-1.52 1.962.837-.482a.5.5 0 0 1 .5.865l-3.04 1.755a.5.5 0 0 1 -.646-.739l1.521-1.962-6.148 3.549a.5.5 0 0 1 -.553-.831l2.063-1.568-4.387 2.538a.5.5 0 0 1 -.25.062z" fill="#3778c6"/><path d="m33.716 14.393a.5.5 0 0 1 -.3-.9l5.5-4.064a.5.5 0 0 1 .249-.429l1.505-.869a.5.5 0 0 1 .547.835l-.328.243a.5.5 0 0 1 .331.926l-7.254 4.188a.493.493 0 0 1 -.25.07z" fill="#bfdbf0"/><path d="m22.944 23.47a.5.5 0 0 1 -.281-.914l6.682-4.536-9.245 5.338a.5.5 0 0 1 -.568-.819l4.087-3.359-4.336 2.5a.5.5 0 0 1 -.551-.832l1.938-1.458-1.39.8a.5.5 0 0 1 -.549-.834l.686-.51-.137.079a.5.5 0 0 1 -.551-.832l.361-.272a.5.5 0 0 1 -.454-.188.5.5 0 0 1 .035-.655l2.519-2.6-1.91 1.1a.5.5 0 0 1 -.623-.765l1.506-1.691-.883.51a.5.5 0 0 1 -.686-.676l1-1.8-.313.18a.5.5 0 0 1 -.744-.508l.24-1.587a.5.5 0 0 1 .018-.855l.331-.191a.5.5 0 0 1 .744.507l-.188 1.248.978-.564a.5.5 0 0 1 .687.676l-1 1.8 2.007-1.159a.5.5 0 0 1 .623.766l-1.507 1.694 2.32-1.34a.5.5 0 0 1 .609.78l-2.519 2.597 3.593-2.075a.5.5 0 0 1 .55.832l-.1.076.411-.238a.5.5 0 0 1 .549.834l-.684.509 1.07-.617a.5.5 0 0 1 .55.832l-1.941 1.462 2.492-1.439a.5.5 0 0 1 .567.82l-4.086 3.359 15.869-9.155a.5.5 0 0 1 .531.847l-6.68 4.535 6.149-3.55a.5.5 0 0 1 .544.838l-6.558 4.754 6.014-3.474a.5.5 0 0 1 .538.842l-2.692 1.895 2.154-1.243a.5.5 0 0 1 .554.829l-2.809 2.156 2.255-1.3a.5.5 0 0 1 .573.814l-1.793 1.518 1.218-.7a.5.5 0 0 1 .61.086.5.5 0 0 1 .063.614l-1.117 1.763.444-.254a.5.5 0 0 1 .5.865l-2.2 1.269a.5.5 0 0 1 -.673-.7l1.115-1.764-4.266 2.46a.5.5 0 0 1 -.573-.814l1.79-1.518-4.039 2.332a.5.5 0 0 1 -.555-.829l2.81-2.157-5.173 2.986a.5.5 0 0 1 -.538-.841l2.691-1.9-4.741 2.741a.5.5 0 0 1 -.544-.838l6.557-4.753-9.685 5.591a.5.5 0 0 1 -.25.07z" fill="#bfdbf0"/><path d="m23.709 23.47a.5.5 0 0 1 -.29-.907l.328-.235-1.86 1.072a.5.5 0 0 1 -.546-.836l2.422-1.775-4.112 2.373a.5.5 0 0 1 -.541-.839l7.972-5.709a.5.5 0 0 1 .242-.521l2.529-1.459a.5.5 0 0 1 .541.839l-2.394 1.718 3.193-1.843a.5.5 0 0 1 .546.836l-2.425 1.779 3.029-1.749a.5.5 0 0 1 .54.84l-.329.234.687-.4a.5.5 0 0 1 .575.812l-2.477 2.117 3.279-1.892a.5.5 0 0 1 .621.767l-2.039 2.264 3.076-1.775a.5.5 0 0 1 .632.756l-.987 1.163 1.646-.95a.5.5 0 0 1 .668.707l-.408.621.852-.491a.5.5 0 0 1 .74.332l.178.867.382-.22a.5.5 0 0 1 .5.867l-.979.567a.5.5 0 0 1 -.74-.333l-.178-.867-2.082 1.2a.5.5 0 0 1 -.613-.089.5.5 0 0 1 -.055-.618l.408-.621-2.3 1.328a.5.5 0 0 1 -.631-.756l.987-1.167-3.333 1.923a.5.5 0 0 1 -.621-.767l2.037-2.261-5.247 3.028a.5.5 0 0 1 -.575-.812l2.477-2.117-5.075 2.929a.5.5 0 0 1 -.25.07z" fill="#b0ccdd"/><g fill="#262626"><path d="m.417 48.093c.65 2.759-.619 6.063.4 8.776 1.772 3.039 9.374 2.736 12.183 2.731 2.828-.005 10.408.324 12.187-2.734.849-2.806.038-6.34.26-9.137-.054-2.658.078-5.568 0-8.09-.02-2.657.026-5.38.007-8-2.226-4.476-12.246-3-15.995-3.089.084-3.114-.133-6.3 0-9.38.544-1.98 2.7-1.632 4.322-1.587l-1.131 1.131c-.533.532.174 1.093.694.572.542-.873 2.445-1.644 2.035-2.749l-2-2c-.417-.418-1.189.5-.762.926l.939.939c-7.726-1.585-4.347 7.671-5.02 12.191-9.745.427-7.9 3.721-7.986 11.2-.073 2.5.051 5.291 0 7.9a.346.346 0 0 0 -.133.4zm8.223-18.745c.263.471.877.592.822-.069 6.322-.457 14.2.549 15 2.911-.355 3.085-21.344 3.6-22.9-.32.591-1.349 3.504-2.182 7.078-2.522zm-7.19 4.319c4.55 3.198 18.55 2.368 23.1-.111v6.225c-1.168 4.309-21.885 4.181-23.1-.167zm0 13.784v-5.828c4.2 2.9 19.224 2.556 23.1-.139.013 2.061-.027 4.114.019 6.177-1.3 4.481-21.9 4.33-23.127.046.002-.084.008-.175.008-.256zm-.1 2c3.8 2.883 19.588 2.93 23.331.025 1.767 8.807-4.636 9.135-11.681 8.924-7.149.1-13.49.164-11.653-8.949z"/><path d="m41.107 7.877c-11.7-8.425-10.219-10-21.9-.042-.4.073-.793.538-.518.844-.341 4.245-1.258 9.9.171 14.011a.422.422 0 0 0 .568.48c3.884.842 8.3.194 12.286.292 2.561-.038 6.281.876 8.671-.23.336.11.757-.287.759-.654.945-1.288.449-3.48.449-5.174 0-2.675.683-6.3-.249-8.953a.4.4 0 0 0 -.237-.574zm-16.051-3.172c2.944-2.018 4.03-3.911 7.118-1.794 2.592 1.842 5.361 3.548 7.865 5.458l-8.534 6.625a2.391 2.391 0 0 0 -2.805.006l-8.546-6.638c1.046-1.594 3.261-2.532 4.902-3.657zm-5.468 16.065a42.324 42.324 0 0 1 .078-11.3l8.012 6.221c-2.667 2.287-5.038 3.964-7.748 6.044a2.5 2.5 0 0 1 -.342-.965zm17.535 1.768c-5.295-.333-11.483.609-16.534-.181 10.742-8.394 7.871-8.338 18.582 0a8.069 8.069 0 0 1 -2.048.181zm3.032-.921c-2.76-2.086-5.075-3.814-7.828-6.093l8.059-6.256c.647 3.613.114 9.115-.231 12.349z"/><path d="m5.98 39.037c.663.117 1.33.212 2 .291.588.068.64-1.13.04-1.2-.669-.078-1.336-.173-2-.291-.575-.102-.634 1.094-.04 1.2z"/><path d="m11.839 39.558c.82-.14 2.218.442 2.62-.51.159-1.143-1.608-.43-2.3-.627-.569-.011-.946 1.125-.32 1.137z"/><path d="m18.189 39.183c.669-.078 1.336-.173 2-.291.772-.137.236-1.019-.378-.91-.668.318-2.372-.141-2.371.827a.719.719 0 0 0 .749.374z"/><path d="m5.809 46.932q1 .175 2 .291c.577.067 1.125-.9.382-.99-.67-.078-1.337-.173-2-.291-.575-.102-1.119.858-.382.99z"/><path d="m12.026 47.439c.77-.149 2.263.447 2.573-.484-.417-.847-1.834-.221-2.625-.415-.76.001-.702.979.052.899z"/><path d="m18.076 47.184c.7-.263 2.538.142 2.476-.874-.62-.737-1.8.022-2.628-.038-.805.022-.524.994.152.912z"/><path d="m5.722 54.93c.707.125 1.417.224 2.13.307.58.068 1.039-.931.3-1.018-.836.059-2.025-.716-2.624.089-.12.21-.103.569.194.622z"/><path d="m12.049 55.578q1 .019 2 0c.643-.012.475-1.188-.1-1.177q-1 .02-2 0c-.639-.012-.474 1.167.1 1.177z"/><path d="m18.1 55.319c.669-.078 1.336-.173 2-.291.59-.1.388-1.287-.2-1.182-.663.117-1.33.212-2 .291-.592.069-.4 1.252.2 1.182z"/><path d="m42.166 38.161c-.669-.078-1.336-.173-2-.291-.563-.1-.966 1.022-.333 1.134q1 .176 2 .291c.567.066.967-1.06.333-1.134z"/><path d="m48.067 38.5c-.661-.027-3.664-.156-2.274.976q1.069.021 2.14 0c.627-.01.915-.989.134-.976z"/><path d="m51.863 39.277q1.07-.124 2.13-.31c.575-.1.751-1.191.014-1.06-.787.3-2.135-.1-2.5.823-.054.229.056.582.356.547z"/><path d="m42.123 46.176q-.942-.111-1.878-.276c-.562-.1-1.108.965-.491 1.074.705.125 1.412.223 2.123.306.561.066.939-1.023.246-1.104z"/><path d="m47.918 46.405q-1 .018-2 0c-.637-.013-.412 1.159.164 1.17q1 .019 2 0c.64-.012.411-1.181-.164-1.17z"/><path d="m54.105 45.881c-.664.118-1.331.213-2 .291-.558.065-.891 1.192-.21 1.112.822-.244 2.259.1 2.6-.878.038-.231-.095-.578-.39-.525z"/><path d="m42.056 54.131c-.67-.079-1.337-.174-2-.291-.583-.1-.706 1.089-.112 1.194.664.118 1.331.213 2 .291.594.075.709-1.125.112-1.194z"/><path d="m48.194 54.5c-.857.176-2.182-.414-2.722.445-.551 1.106 4.585.562 2.722-.445z"/><path d="m52.015 55.319c.669-.079 1.336-.174 2-.291.565-.1.6-1.293-.03-1.182-.664.118-1.33.213-2 .291-.568.063-.61 1.256.03 1.182z"/><path d="m50.538 28.378c-4.1.332-14.835-1.054-16 3.7.33 8.231-.575 16.714.255 24.822 1.852 3.136 9.154 2.7 12.2 2.7 2.891 0 10.351.381 12.2-2.764.928-2.717-.012-5.949.28-8.789-.009-5.426.022-10.891-.013-16.326-.684-2.328-4.423-3.082-7.981-3.289-.672-4.74 2.742-13.587-5.187-12.016l1.128-1.128c.554-.554-.369-1-.812-.558-.568.848-2.162 1.543-2.11 2.568l2 2c.4.4 1.471-.137 1.03-.578l-1.148-1.144c1.594-.068 3.668-.37 4.158 1.594.125 3.03-.079 6.149 0 9.208zm8 26.636c-.987 3.668-8.215 3.395-11.525 3.395-6.925.037-13.48.176-11.662-8.853 3.545 3.153 20.1 2.823 23.3-.2a18.43 18.43 0 0 1 -.11 5.658zm0-7.047c-1.1 3.742-21.879 3.851-23.075-.223-.018-2.074 0-4.172 0-6.254 3.586 2.922 19.343 3.1 23.082.15-.015 2.11.014 4.227-.006 6.327zm0-8.217c-1.373 4.025-21.719 4.006-23.082.178v-6.19c4.39 2.539 19.165 2.908 23.082-.224zm-7.23-10.315c3.551.357 6.495 1.219 7.153 2.648-3.356 3.835-14.5 2.249-19.129 1.619-1.413-.325-3.831-.476-2.941-2.054 1.066-1.89 8.235-2.748 14.146-2.283.014.559.515.424.774.07z"/></g></svg>