<svg id="Capa_1" enable-background="new 0 0 512 512" height="512" viewBox="0 0 512 512" width="512" xmlns="http://www.w3.org/2000/svg"><path d="m0 61.463h512v389.074h-512z" fill="#00cc76"/><path d="m256 61.463h256v389.074h-256z" fill="#ebe1dc"/><path d="m320.796 346.14c-51.211 0-92.443-42.727-89.992-94.477 2.232-47.125 41.161-84.842 88.33-85.699 4.819-.088 9.553.207 14.173.853 4.312.603 6.461-5.079 2.856-7.522-18.644-12.634-41.132-20.021-65.345-20.036-63.576-.041-115.957 51.535-116.852 115.104-.918 65.27 51.715 118.468 116.774 118.468 24.266 0 46.802-7.403 65.476-20.073 3.583-2.431 1.397-8.089-2.891-7.488-4.094.573-8.277.87-12.529.87z" fill="#ff3939"/><g fill="#d20000"><path d="m333.325 345.27c-4.094.573-8.277.87-12.53.87-25.439 0-48.413-10.546-64.795-27.502v53.268c4.828.608 9.747.924 14.741.924 24.266 0 46.802-7.404 65.476-20.073 3.583-2.43 1.397-8.088-2.892-7.487z"/><path d="m319.134 165.964c4.819-.088 9.553.207 14.173.853 4.312.603 6.461-5.079 2.856-7.522-18.644-12.634-41.132-20.021-65.345-20.036-5.016-.003-9.961.316-14.818.936v53.417c16.089-16.668 38.479-27.2 63.134-27.648z"/><path d="m369.349 235.376-22.607-22.606-20.135 20.135-20.135-20.135-22.607 22.606 20.135 20.136-20.135 20.135 22.607 22.607 20.135-20.136 20.135 20.136 22.607-22.607-20.135-20.135z"/></g></svg>