<svg id="Warstwa_1" enable-background="new 0 0 283.46 283.46" height="283.46" viewBox="0 0 283.46 283.46" width="283.46" xmlns="http://www.w3.org/2000/svg"><g><path d="m2.835 48.376h277.794v186.712h-277.794z" fill="#d6d4d1"/><g><path d="m106.695 50.835h171.677v20.152h-171.677z" fill="#1c5ea6"/><path d="m106.695 70.987h171.677v20.152h-171.677z" fill="#fff"/><path d="m106.695 91.139h171.677v20.152h-171.677z" fill="#1c5ea6"/><path d="m106.695 111.292h171.677v20.153h-171.677z" fill="#fff"/><path d="m106.695 131.445h171.677v20.944h-171.677z" fill="#1c5ea6"/><path d="m65.967 152.389v-41.097h40.713v-20.153h-40.713v-40.704h-20.144v40.704h-40.697v20.153h40.697v41.097h-40.697v20.152h273.246v-20.152z" fill="#fff"/><g fill="#1c5ea6"><path d="m65.967 50.835h40.712v40.305h-40.712z"/><path d="m65.967 111.292h40.712v41.098h-40.712z"/><path d="m5.126 50.835h40.697v40.305h-40.697z"/><path d="m5.126 111.292h40.697v41.098h-40.697z"/></g><path d="m5.126 172.541h273.246v20.152h-273.246z" fill="#1c5ea6"/><path d="m5.126 192.694h273.246v20.152h-273.246z" fill="#fff"/><path d="m5.126 212.846h273.246v20.15h-273.246z" fill="#1c5ea6"/></g></g></svg>