<svg id="Layer_1" enable-background="new 0 0 512 512" viewBox="0 0 512 512" xmlns="http://www.w3.org/2000/svg" xmlns:xlink="http://www.w3.org/1999/xlink"><linearGradient id="SVGID_1_" gradientTransform="matrix(1 0 0 -1 0 514)" gradientUnits="userSpaceOnUse" x1="55.722" x2="456.29" y1="458.29" y2="57.722"><stop offset="0" stop-opacity=".05"/><stop offset="1" stop-opacity=".3"/></linearGradient><g id="Layer_2_00000152221993445214340730000016974379075276782489_"><g id="Flag_rectangle_copy_3"><g id="Scotland"><path d="m512 128v256c0 22.1-17.9 40-40 40h-432c-22.1 0-40-17.9-40-40v-256c0-22.1 17.9-40 40-40h432c22.1 0 40 17.9 40 40z" fill="#005eb8"/><path d="m297.9 256 212.4 139.4c-5 17-20.6 28.6-38.4 28.6h-1.9l-214-140.5-214.1 140.5h-1.9c-17.7 0-33.3-11.6-38.3-28.6l212.4-139.4-212.5-139.4c5.1-17 20.7-28.6 38.4-28.6h1.9l214.1 140.5 214.1-140.5h1.9c17.7 0 33.3 11.6 38.4 28.6z" fill="#f2f2f2"/><path d="m502.9 102.6c-7.6-9.3-19-14.6-30.9-14.6h-432c-22.1 0-40 17.9-40 40v256c0 9.4 3.3 18.4 9.3 25.6.8 1 1.7 1.9 2.6 2.9 7.5 7.4 17.6 11.5 28.1 11.5h432c22.1 0 40-17.9 40-40v-256c0-9.3-3.2-18.3-9.1-25.4zm-462.9 297.4c-2.5 0-5-.6-7.2-1.7-1.5-.7-2.8-1.7-3.9-2.9-3.1-3-4.8-7.1-4.8-11.3v-256.2c0-8.8 7.1-15.9 15.9-15.9h432.2c7.2.1 13.5 4.9 15.4 11.9-11 187-134 253.7-200.2 276.1z" fill="url(#SVGID_1_)"/></g></g></g></svg>