<?xml version="1.0" encoding="iso-8859-1"?>
<!-- Generator: Adobe Illustrator 19.0.0, SVG Export Plug-In . SVG Version: 6.00 Build 0)  -->
<svg version="1.1" id="Capa_1" xmlns="http://www.w3.org/2000/svg" xmlns:xlink="http://www.w3.org/1999/xlink" x="0px" y="0px"
	 viewBox="0 0 512 512" style="enable-background:new 0 0 512 512;" xml:space="preserve">
<polygon style="fill:#FFD311;" points="504,224 504,288 216,288 216,432 152,432 152,288 8,288 8,224 152,224 152,80 216,80 
	216,224 "/>
<g>
	<rect x="216" y="80" style="fill:#0071BC;" width="288" height="144"/>
	<rect x="216" y="288" style="fill:#0071BC;" width="288" height="144"/>
	<rect x="8" y="288" style="fill:#0071BC;" width="144" height="144"/>
	<rect x="8" y="80" style="fill:#0071BC;" width="144" height="144"/>
</g>
<path d="M504,72H216h-64H8c-4.424,0-8,3.584-8,8v144v64v144c0,4.416,3.576,8,8,8h144h64h288c4.424,0,8-3.584,8-8V288v-64V80
	C512,75.584,508.424,72,504,72z M496,216H224V88h272V216z M144,88v128H16V88H144z M16,296h128v128H16V296z M208,288v136h-48V288
	c0-4.416-3.576-8-8-8H16v-48h136c4.424,0,8-3.584,8-8V88h48v136c0,4.416,3.576,8,8,8h280v48H216C211.576,280,208,283.584,208,288z
	 M224,424V296h272v128H224z"/>
<g>
</g>
<g>
</g>
<g>
</g>
<g>
</g>
<g>
</g>
<g>
</g>
<g>
</g>
<g>
</g>
<g>
</g>
<g>
</g>
<g>
</g>
<g>
</g>
<g>
</g>
<g>
</g>
<g>
</g>
</svg>
