<svg id="Layer_1" height="512" viewBox="0 0 512 512" width="512" xmlns="http://www.w3.org/2000/svg" data-name="Layer 1"><g fill-rule="evenodd"><path d="m219.295 280.424v-208.607c0-4.221-1.505-7.854-4.489-10.839l-45.474-45.473c-2.985-2.985-6.617-4.489-10.838-4.489h-146.066v269.408z" fill="#e9e9ff"/><path d="m169.332 15.505c-2.985-2.985-6.617-4.489-10.838-4.489h-3.891c5.576 2.3 9.527 7.803 9.527 14.184v31.172c0 5.402 4.406 9.808 9.808 9.808h31.173c6.38 0 11.883 3.951 14.184 9.527v-3.891c0-4.221-1.505-7.853-4.489-10.838z" fill="#bcbcf5"/><path d="m499.649 485.144c0 8.766-44.413 15.872-99.199 15.872s-99.199-7.106-99.199-15.872v-50.659h198.397v50.659z" fill="#7a7abf"/><path d="m499.649 434.485c0 8.765-44.413 15.872-99.199 15.872s-99.199-7.106-99.199-15.872v-50.659h198.397v50.659z" fill="#8888cf"/><path d="m499.649 383.826c0 8.766-44.413 15.872-99.199 15.872s-99.199-7.106-99.199-15.872v-50.659h198.397v50.659z" fill="#9999db"/><path d="m499.649 333.167c0 8.766-44.413 15.872-99.199 15.872s-99.199-7.106-99.199-15.872v-50.659h198.397v50.659z" fill="#acace8"/></g><ellipse cx="400.45" cy="282.508" fill="#bcbcf5" rx="99.199" ry="15.872"/><path d="m288.024 167.543 22.901-15.357 36.607 36.607-15.357 22.901 15.541 37.511 27.049 5.333v51.771l-27.049 5.333-15.541 37.511 15.357 22.9-36.607 36.608-22.901-15.358-37.51 15.542-5.334 27.049h-51.77l-5.334-27.049-37.51-15.542-22.901 15.358-36.608-36.608 15.358-22.901-15.541-37.51-27.049-5.333v-51.771l27.049-5.333 15.541-37.51-15.358-22.902 36.608-36.607 22.901 15.358 37.51-15.541 5.334-27.049h51.77l5.334 27.048z" fill="#fdc72e" fill-rule="evenodd"/><circle cx="219.295" cy="280.423" fill="#e9e9ff" r="80.723" transform="matrix(.988 -.155 .155 .988 -40.842 37.408)"/><path d="m219.274 355.13c-41.204 0-74.739-33.52-74.739-74.72s33.535-74.724 74.739-74.724 74.691 33.52 74.691 74.724-33.487 74.72-74.691 74.72zm0-161.443c-47.825 0-86.743 38.903-86.743 86.723s38.917 86.719 86.743 86.719 86.695-38.898 86.695-86.719-38.87-86.723-86.695-86.723zm-177.582-31.205c0-3.31 2.667-5.997 6.002-5.997h31.915c3.287 0 5.954 2.687 5.954 5.997s-2.668 6.002-5.954 6.002h-31.915c-3.334 0-6.002-2.687-6.002-6.002zm19.387 38.108h-13.386c-3.334 0-6.002-2.686-6.002-5.997s2.667-6.002 6.002-6.002h13.386c3.334 0 6.002 2.687 6.002 6.002s-2.667 5.997-6.002 5.997zm-19.387-102.319c0-3.311 2.667-5.997 6.002-5.997h136.283c3.287 0 6.002 2.686 6.002 5.997s-2.715 6.002-6.002 6.002h-136.283c-3.334 0-6.002-2.687-6.002-6.002zm0 32.106c0-3.311 2.667-5.997 6.002-5.997h114.609c3.334 0 6.002 2.687 6.002 5.997s-2.667 6.002-6.002 6.002h-114.609c-3.334 0-6.002-2.687-6.002-6.002zm0-64.207c0-3.315 2.667-6.002 6.002-6.002h69.499c3.334 0 6.002 2.686 6.002 6.002s-2.667 5.997-6.002 5.997h-69.499c-3.334 0-6.002-2.687-6.002-5.997zm423.09 424.981c-17.768 2.482-40.632 3.849-64.354 3.849s-46.634-1.367-64.402-3.849c-20.673-2.891-27.104-6.212-28.819-7.35v-37.431c5.383 2.02 12.671 3.739 22.102 5.254 19.054 3.039 44.3 4.721 71.118 4.721s52.017-1.682 71.071-4.721c9.432-1.515 16.72-3.234 22.103-5.254v37.431c-1.667 1.138-8.146 4.459-28.819 7.35zm-157.242-77.521c2.382 1.6 5.573 1.291 7.574-.738l12.29-12.252c19.006 3.211 45.348 5.04 73.024 5.04 26.771 0 52.017-1.667 71.071-4.721 9.432-1.505 16.72-3.22 22.103-5.249v37.431c-1.667 1.138-8.098 4.459-28.819 7.35-17.768 2.482-40.632 3.849-64.354 3.849s-46.634-1.367-64.402-3.849c-20.673-2.891-27.152-6.212-28.819-7.35v-19.73l.333.219zm-21.864-25.88c1.858-.767 4.001-.557 5.668.562l18.768 12.609 29.677-29.638-12.623-18.801c-1.143-1.672-1.334-3.782-.571-5.64l15.529-37.512c.762-1.848 2.429-3.196 4.382-3.587l22.246-4.382v-41.904l-22.246-4.378c-1.953-.391-3.62-1.734-4.382-3.591l-15.529-37.512c-.762-1.853-.572-3.968.571-5.635l12.623-18.806-29.677-29.628-18.768 12.609c-1.667 1.119-3.811 1.329-5.668.557l-37.488-15.538c-1.858-.767-3.191-2.415-3.573-4.382l-4.382-22.212h-41.918l-4.382 22.212c-.381 1.972-1.715 3.616-3.62 4.382l-37.488 15.543c-1.858.767-3.954.557-5.621-.562l-18.816-12.609-29.629 29.628 12.623 18.806c1.096 1.667 1.334 3.782.524 5.64l-15.529 37.507c-.762 1.858-2.43 3.201-4.383 3.591l-22.197 4.378v41.904l22.197 4.382c1.953.391 3.62 1.739 4.383 3.587l15.529 37.512c.81 1.858.572 3.968-.524 5.64l-12.623 18.801 29.629 29.638 18.816-12.609c1.667-1.119 3.763-1.329 5.621-.562l37.488 15.538c1.905.762 3.239 2.41 3.62 4.382l4.382 22.208h41.918l4.382-22.208c.381-1.972 1.715-3.61 3.573-4.382zm-267.277-113.342h39.393v-19.883c0-2.868 2.001-5.335 4.811-5.888l23.912-4.711 13.1-31.572-13.576-20.235c-1.572-2.377-1.286-5.559.715-7.583l36.631-36.607c2.048-2.024 5.192-2.334 7.574-.738l20.245 13.566 31.582-13.08 4.716-23.898c.524-2.81 3.001-4.84 5.859-4.84h19.911v-41.861c-1.667-3.005-4.763-4.911-8.193-4.911h-31.153c-8.717 0-15.815-7.093-15.815-15.81v-31.173c0-3.449-1.905-6.55-4.907-8.184h-134.805zm187.108-214.222c-.143-.005-.286-.019-.429-.019h-31.153c-2.096 0-3.811-1.71-3.811-3.811v-31.172c0-.143-.048-.286-.048-.429l35.44 35.431zm194.921 212.436c23.722 0 46.587 1.367 64.354 3.854 15.195 2.12 22.674 4.468 26.294 6.016-3.62 1.553-11.099 3.897-26.294 6.021-17.768 2.486-40.632 3.849-64.354 3.849-6.669 0-13.242-.1-19.673-.31v-19.111c6.431-.209 13.004-.319 19.673-.319zm93.173 109.86c-1.667 1.138-8.098 4.458-28.819 7.35-17.768 2.477-40.632 3.849-64.354 3.849-23.055 0-45.11-1.282-62.497-3.592l13.814-13.809c2.001-2.029 2.334-5.197.762-7.579l-11.29-16.772c17.148 2.001 37.822 3.092 59.21 3.092 26.771 0 52.017-1.672 71.071-4.721 9.432-1.51 16.72-3.22 22.103-5.249v37.432zm0-50.65c-1.667 1.129-8.098 4.449-28.819 7.341-17.768 2.491-40.632 3.849-64.354 3.849-21.054 0-41.299-1.072-58.019-3.03l9.575-23.098 23.912-4.711c2.81-.553 4.859-3.025 4.859-5.892v-2.239c6.431.209 13.052.309 19.673.309 26.771 0 52.017-1.672 71.071-4.72 9.432-1.51 16.72-3.22 22.103-5.249v37.441zm-22.103-66.488c-19.054-3.044-44.3-4.72-71.071-4.72-6.621 0-13.242.105-19.673.31v-6.407c0-2.868-2.048-5.335-4.859-5.888l-23.912-4.711-13.052-31.572 13.576-20.235c1.572-2.377 1.238-5.559-.762-7.583l-36.631-36.607c-2.001-2.024-5.192-2.334-7.574-.743l-20.245 13.571-31.534-13.08-4.716-23.898c-.572-2.81-3.048-4.84-5.907-4.84h-19.864v-47.134c0-5.778-2.191-10.994-6.24-15.081l-45.49-45.48c-4.097-4.082-9.289-6.245-15.1-6.245h-146.048c-3.334 0-6.002 2.686-6.002 6.002v269.407c0 3.315 2.667 6.002 6.002 6.002h45.396v19.878c0 2.868 2.001 5.34 4.811 5.892l23.912 4.711 13.1 31.567-13.576 20.24c-1.572 2.382-1.286 5.549.715 7.579l36.631 36.612c2.048 2.029 5.192 2.339 7.574.738l20.245-13.571 31.582 13.081 4.716 23.903c.524 2.806 3.001 4.84 5.859 4.84h51.779c2.858 0 5.335-2.034 5.907-4.84l4.716-23.903 31.534-13.081 7.907 5.302v79.769c0 8.193 10.194 13.323 34.106 17.153 19.054 3.039 44.3 4.716 71.118 4.716s52.017-1.677 71.071-4.716c23.913-3.83 34.107-8.96 34.107-17.153v-202.638c0-8.193-10.194-13.319-34.107-17.148z" fill-rule="evenodd"/></svg>