<svg id="Layer_1" enable-background="new 0 0 512 512" height="512" viewBox="0 0 512 512" width="512" xmlns="http://www.w3.org/2000/svg"><g><g><path d="m84 484h176c17.673 0 32-14.327 32-32v-240c0-17.673-14.327-32-32-32h-128l-80 72v200c0 17.673 14.327 32 32 32z" fill="#2387c3"/></g><g><path d="m60 460h176c17.673 0 32-14.327 32-32v-240c0-17.673-14.327-32-32-32h-128l-80 72v200c0 17.673 14.327 32 32 32z" fill="#5ad7ff"/></g><g><path d="m108 156v40c0 17.673-14.327 32-32 32h-48z" fill="#2387c3"/></g><g><g><path d="m92 362.666c-3.071 0-6.143-1.172-8.485-3.515l-40-40c-4.687-4.687-4.687-12.284 0-16.971l40-40c4.686-4.686 12.285-4.686 16.971 0 4.687 4.687 4.687 12.284 0 16.971l-31.515 31.515 31.515 31.515c4.687 4.687 4.687 12.284 0 16.971-2.343 2.343-5.415 3.514-8.486 3.514z" fill="#2387c3"/></g><g><path d="m204 362.666c-3.071 0-6.143-1.172-8.485-3.515-4.687-4.687-4.687-12.284 0-16.971l31.515-31.515-31.515-31.515c-4.687-4.687-4.687-12.284 0-16.971 4.686-4.686 12.285-4.686 16.971 0l40 40c4.687 4.687 4.687 12.284 0 16.971l-40 40c-2.343 2.345-5.415 3.516-8.486 3.516z" fill="#2387c3"/></g><g><path d="m131.996 362.669c-1.483 0-2.991-.276-4.453-.861-6.153-2.461-9.146-9.445-6.685-15.599l32-80c2.462-6.152 9.443-9.147 15.599-6.685 6.153 2.461 9.146 9.445 6.685 15.599l-32 80c-1.877 4.692-6.383 7.546-11.146 7.546z" fill="#2387c3"/></g></g><path d="m380 364c-4.418 0-8 3.582-8 8v48c0 4.411-3.589 8-8 8h-32v-10.204c0-3.201-2.595-5.796-5.796-5.796-1.419 0-2.79.521-3.851 1.464l-20.36 18.098c-1.268 1.127-1.993 2.742-1.993 4.438 0 1.695.725 3.311 1.993 4.438l20.36 18.098c1.061.943 2.431 1.465 3.851 1.465 3.201 0 5.796-2.596 5.796-5.797v-10.204h32c13.233 0 24-10.767 24-24v-48c0-4.418-3.582-8-8-8z" fill="#faa019"/><path d="m210.007 63.562-20.36-18.098c-1.061-.943-2.431-1.464-3.851-1.464-3.201 0-5.796 2.595-5.796 5.796v10.204h-32c-13.233 0-24 10.767-24 24v56c0 4.418 3.582 8 8 8s8-3.582 8-8v-56c0-4.411 3.589-8 8-8h32v10.203c0 3.201 2.595 5.796 5.796 5.796 1.419 0 2.79-.521 3.851-1.464l20.36-18.098c1.268-1.126 1.993-2.741 1.993-4.437s-.725-3.312-1.993-4.438z" fill="#faa019"/><g><path d="m276 356h176c17.673 0 32-14.327 32-32v-240c0-17.673-14.327-32-32-32h-128l-80 72v200c0 17.673 14.327 32 32 32z" fill="#faa019"/></g><g><path d="m252 332h176c17.673 0 32-14.327 32-32v-240c0-17.673-14.327-32-32-32h-128l-80 72v200c0 17.673 14.327 32 32 32z" fill="#ffcd05"/></g><g><g><path d="m284 232c-3.071 0-6.143-1.172-8.485-3.515l-40-40c-4.687-4.687-4.687-12.284 0-16.971l40-40c4.686-4.686 12.285-4.686 16.971 0 4.687 4.687 4.687 12.284 0 16.971l-31.515 31.515 31.515 31.515c4.687 4.687 4.687 12.284 0 16.971-2.343 2.343-5.415 3.514-8.486 3.514z" fill="#faa019"/></g><g><path d="m396 232c-3.071 0-6.143-1.172-8.485-3.515-4.687-4.687-4.687-12.284 0-16.971l31.514-31.514-31.515-31.515c-4.687-4.687-4.687-12.284 0-16.971 4.686-4.686 12.285-4.686 16.971 0l40 40c4.687 4.687 4.687 12.284 0 16.971l-40 40c-2.342 2.344-5.414 3.515-8.485 3.515z" fill="#faa019"/></g><g><path d="m323.996 232.003c-1.483 0-2.991-.276-4.453-.861-6.153-2.461-9.146-9.445-6.685-15.599l32-80c2.462-6.152 9.443-9.147 15.599-6.685 6.153 2.461 9.146 9.445 6.685 15.599l-32 80c-1.877 4.692-6.383 7.546-11.146 7.546z" fill="#faa019"/></g></g><g><path d="m300 28v40c0 17.673-14.327 32-32 32h-48z" fill="#faa019"/></g></g></svg>