<svg id="Capa_1" enable-background="new 0 0 512 512" height="512" viewBox="0 0 512 512" width="512" xmlns="http://www.w3.org/2000/svg"><g><g><path d="m137 0c-8.284 0-15 6.716-15 15v482c0 8.284 6.716 15 15 15h180l10-34.83v-443.954l-10-33.216z" fill="#f0f7ff"/><path d="m430.56 68.099-39.56-68.099h-74v512h180c8.284 0 15-6.716 15-15v-392z" fill="#ddedff"/></g><path d="m401 105h111l-121-105v95c0 5.523 4.477 10 10 10z" fill="#bfd7ff"/><g><path d="m276.944 325.688v71.25h-27.419c-6.236 0-9.359 7.54-4.95 11.95l65.354 65.354c1.953 1.953 4.512 2.929 7.071 2.929l10-13.05v-127.853l-10-10.581h-40.056z" fill="#00ec86"/><path d="m384.476 396.938h-27.419v-71.25h-40.057v151.482c2.559 0 5.118-.976 7.071-2.929l65.354-65.354c4.41-4.409 1.287-11.949-4.949-11.949z" fill="#00ca8f"/></g><g><path d="m15 125c-8.284 0-15 6.716-15 15v181c0 8.284 6.716 15 15 15h188l10-15.25v-182.164l-10-13.586z" fill="#ff597d"/><path d="m391 125h-188v211h188c8.284 0 15-6.716 15-15v-181c0-8.284-6.716-15-15-15z" fill="#ff306d"/></g><path d="m101.5 170.26-29.25.487c-8.186.137-14.75 6.811-14.75 14.998v90c0 8.284 6.716 15 15 15s15-6.716 15-15v-15h14.754c24.949 0 45.246-20.297 45.246-45.246 0-25.113-20.488-45.64-46-45.239zm.754 60.486h-14.754v-30.248l14.5-.242c8.502-.149 15.5 6.7 15.5 15.244 0 8.406-6.839 15.246-15.246 15.246z" fill="#f0f7ff"/><g><path d="m192.5 260.746v-60c3.693 0 7.23.675 10.5 1.901l10-15.483-10-15.479c-3.412-.605-6.917-.939-10.5-.939h-15c-8.284 0-15 6.716-15 15v90c0 8.284 6.716 15 15 15h15c3.583 0 7.088-.334 10.5-.939l10-16.284-10-14.678c-3.27 1.226-6.807 1.901-10.5 1.901z" fill="#f0f7ff"/><path d="m252.5 230.746c0-29.501-21.408-54.079-49.5-59.061v30.962c11.378 4.266 19.5 15.25 19.5 28.099s-8.122 23.834-19.5 28.099v30.962c28.092-4.982 49.5-29.561 49.5-59.061z" fill="#ddedff"/></g><path d="m333.5 170.746h-51c-8.284 0-15 6.716-15 15v90c0 8.284 6.716 15 15 15s15-6.716 15-15v-15h20c8.284 0 15-6.716 15-15s-6.716-15-15-15h-20v-30h36c8.284 0 15-6.716 15-15s-6.716-15-15-15z" fill="#ddedff"/></g></svg>